<?xml version="1.0" standalone="no"?><!DOCTYPE svg PUBLIC "-//W3C//DTD SVG 1.1//EN" "http://www.w3.org/Graphics/SVG/1.1/DTD/svg11.dtd"><svg t="1637207319193" class="icon" viewBox="0 0 1024 1024" version="1.1" xmlns="http://www.w3.org/2000/svg" p-id="39577" xmlns:xlink="http://www.w3.org/1999/xlink" width="880" height="880"><defs><style type="text/css"></style></defs><path d="M64 0l0 1012.8 116.992-116.992 108.544 108.544 108.544-108.544 110.176 110.176 110.112-110.112 106.912 106.912 106.976-106.976 127.744 127.744 0-1023.552-896 0zM643.232 460.288l0 49.088-89.632 0 0 42.4 89.632 0 0 49.088-89.632 0 0 71.136-84.8 0 0-71.136-92.576 0 0-49.088 92.576 0 0-42.4-92.576 0 0-49.088 75.904 0-100.128-172.288 89.344 0 73.184 154.432 1.088 0c2.368-5.76 6.016-14.112 11.04-25.024l60.576-129.408 84.768 0-103.072 172.288c0 0 74.304 0 74.304 0z" p-id="39578" fill="#1296db"></path><path d="M64 1024l3.136 0-3.136-3.136z" p-id="39579" fill="#1296db"></path></svg>