<?xml version="1.0" standalone="no"?><!DOCTYPE svg PUBLIC "-//W3C//DTD SVG 1.1//EN" "http://www.w3.org/Graphics/SVG/1.1/DTD/svg11.dtd"><svg t="1637203205750" class="icon" viewBox="0 0 1024 1024" version="1.1" xmlns="http://www.w3.org/2000/svg" p-id="7331" xmlns:xlink="http://www.w3.org/1999/xlink" width="880" height="880"><defs><style type="text/css"></style></defs><path d="M694 112c17.673 0 32 14.327 32 32v31h122c35.346 0 64 28.654 64 64v219c0 17.673-14.327 32-32 32-17.496 0-31.713-14.042-31.996-31.47L848 458v-36H186c-3.492 0-6.854-0.56-10-1.593V848h251v0.015c0.333-0.01 0.666-0.015 1-0.015 17.673 0 32 14.327 32 32 0 17.673-14.327 32-32 32-0.334 0-0.667 0-1-0.015V912H176c-35.346 0-64-28.654-64-64V239c0-35.346 28.654-64 64-64h128v-31c0-17.673 14.327-32 32-32 17.673 0 32 14.327 32 32v31h294v-31c0-17.673 14.327-32 32-32zM428 676c17.673 0 32 14.327 32 32 0 17.496-14.042 31.713-31.47 31.996L428 740H312c-17.673 0-32-14.327-32-32 0-17.673 14.327-32 32-32h116z m-116-86c-17.673 0-32-14.327-32-32 0-17.673 14.327-32 32-32h150c17.673 0 32 14.327 32 32 0 17.496-14.042 31.713-31.47 31.996L462 590H312z m-8-351H176v120.593A31.973 31.973 0 0 1 186 358h662V239H726v31c0 17.673-14.327 32-32 32-17.673 0-32-14.327-32-32v-31H368v31c0 17.673-14.327 32-32 32-17.673 0-32-14.327-32-32v-31z" p-id="7332" fill="#1296db"></path><path d="M742 520c122.607 0 222 99.393 222 222s-99.393 222-222 222-222-99.393-222-222 99.393-222 222-222z m0 60c-89.47 0-162 72.53-162 162s72.53 162 162 162 162-72.53 162-162-72.53-162-162-162z m-3.289 37.156c16.403 0 29.731 13.164 29.996 29.503l0.004 0.497v74.132h29.133c16.24 0 29.465 12.903 29.985 29.016l0.011 0.489 0.004 0.496c0 16.403-13.164 29.73-29.503 29.996l-0.497 0.004h-59a29.9 29.9 0 0 1-21.303-8.877 29.902 29.902 0 0 1-8.826-20.752l-0.004-0.504v-104c0-16.569 13.432-30 30-30z" p-id="7333" fill="#1296db"></path></svg>