<?xml version="1.0" standalone="no"?><!DOCTYPE svg PUBLIC "-//W3C//DTD SVG 1.1//EN" "http://www.w3.org/Graphics/SVG/1.1/DTD/svg11.dtd"><svg t="1637207248388" class="icon" viewBox="0 0 1024 1024" version="1.1" xmlns="http://www.w3.org/2000/svg" p-id="37500" xmlns:xlink="http://www.w3.org/1999/xlink" width="880" height="880"><defs><style type="text/css"></style></defs><path d="M754.708893 1023.989h-0.002c-16.809819 0-40.153569-2.585972-55.9004-14.90384-6.722928-5.255944-12.919861-12.442866-18.929796-22.036763-15.712831 1.81598-30.76267 2.708971-45.562511 2.708971H472.842921c-7.099924 0-14.297846-0.192998-21.536769-0.577994-5.57594 8.478909-11.388878 15.052838-17.558811 19.888786-15.776831 12.337867-39.11758 14.92184-55.9254 14.92184-11.064881 0-38.826583-1.286986-57.586381-13.218858-17.242815-10.979882-32.524651-33.894636-48.986474-73.698208-32.467651-18.366803-61.807336-40.96056-87.339062-67.270278-19.244793-19.831787-35.984613-41.423555-50.023462-64.493307-12.261868 6.341932-25.751723 9.726896-39.657574 9.726896-25.978721 0-50.149461-11.335878-68.059269-31.923657C9.2939 763.716796 0.001 738.18907 0.001 711.23036V563.593946c0-26.96471 9.2929-52.498436 26.166719-71.893228 17.908808-20.584779 42.079548-31.920657 68.060269-31.920657 10.099892 0 20.034785 1.809981 29.477683 5.288943 12.984861-24.556736 28.906689-47.664488 47.564489-69.000259 22.749756-26.014721 49.087473-48.848475 78.452157-68.036269 2.217976-17.215815 8.720906-38.416587 19.63679-64.139311 10.557887-24.878733 21.489769-45.065516 21.949764-45.913507a29.999678 29.999678 0 0 1 45.866507-8.474909c1.480984 1.267986 32.709649 28.057699 62.718326 59.393362 24.605736-4.447952 49.071473-6.695928 72.949217-6.695928H634.314186c52.322438 0 103.111892 9.521898 150.958378 28.301696 46.336502 18.185805 87.978055 44.248525 123.769671 77.462168 35.951614 33.362642 64.20231 72.270224 83.971098 115.641758 20.546779 45.082516 30.964667 92.982001 30.964667 142.366471 0 58.784369-15.434834 117.187741-44.63552 168.894185-26.463716 46.860497-64.23531 88.382051-109.617823 120.602705-25.279728 68.587263-44.778519 87.257063-57.428383 95.301976-18.756799 11.926872-46.5185 13.215858-57.587381 13.215858z m-19.328793-62.548328c2.087978 0.843991 8.505909 2.544973 19.326793 2.544973 13.483855 0 22.906754-2.593972 25.392727-3.858959 1.248987-1.017989 14.970839-13.255858 36.374609-73.866206a29.999678 29.999678 0 0 1 11.557876-14.91184c85.124086-57.190386 135.94354-148.9204 135.94354-245.376364 0-167.498201-147.885411-303.768737-329.660459-303.768737H472.842921c-25.016731 0-50.915453 2.924969-76.978173 8.695906a30.007678 30.007678 0 0 1-28.716692-9.145901c-13.081859-14.437845-27.625703-28.747691-39.972571-40.384567a458.463075 458.463075 0 0 0-2.76397 6.394932c-16.516823 39.037581-15.653832 52.687434-15.500833 54.115418a30.002678 30.002678 0 0 1-14.485845 28.971689c-59.200364 35.237621-105.397868 88.112053-130.082602 148.885401a30.002678 30.002678 0 0 1-49.144472 9.786895c-4.386953-4.442952-11.586876-9.739895-20.968775-9.739896-18.871797 0-34.224632 19.653789-34.224633 43.81253v147.637414c0 23.743745 15.672832 43.802529 34.224633 43.802529 12.365867 0 20.707778-8.794906 24.578736-14.034849a30.000678 30.000678 0 0 1 51.299449 5.095945c28.000699 59.770358 77.370169 110.666811 139.013506 143.312461a30.006678 30.006678 0 0 1 13.897851 15.581832c17.537812 44.827518 28.149698 54.145418 29.409684 55.134408 2.479973 1.267986 11.905872 3.862959 25.394727 3.862959 10.847883 0 17.269814-1.708982 19.341793-2.550973 1.195987-1.216987 4.987946-5.58394 10.434887-16.76382a30.009678 30.009678 0 0 1 29.959679-16.71082c11.873872 1.190987 23.744745 1.792981 35.284621 1.79298H634.314186c18.120805 0 36.869604-1.604983 57.318384-4.907947 13.234858-2.134977 26.294718 4.770949 31.968657 16.927818 6.234933 13.352857 10.488887 18.336803 11.778873 19.664789z" p-id="37501" fill="#1296db"></path><path d="M773.744688 429.071391c-6.586929 8.894904-16.979818 13.297857-27.278707 12.610864a30.899668 30.899668 0 0 1-16.426823-6.047935c-41.00556-30.281675-139.839498-40.436566-211.705726-21.651767-16.72182 4.368953-33.772637-5.63094-38.13859-22.32376-4.362953-16.70982 5.62094-33.792637 22.34276-38.15559 80.398136-21.046774 201.413836-14.90084 264.637157 31.849657 13.879851 10.25989 16.80182 29.83468 6.569929 43.718531zM364.88208 433.649342c-12.210869-11.17388-28.402695-17.327814-45.59351-17.327814-17.192815 0-33.386641 6.153934-45.59851 17.327814-9.580897 8.765906-21.000774 24.662735-21.000774 50.610456 0 13.095859 10.654886 23.749745 23.750744 23.749745 13.095859 0 23.749745-10.653886 23.749745-23.749745 0-15.068838 9.865894-20.43778 19.098795-20.43778 9.230901 0 19.093795 5.368942 19.093795 20.43778 0 13.095859 10.652886 23.749745 23.748745 23.749745 13.095859 0 23.750745-10.653886 23.750745-23.749745 0-25.947721-11.419877-41.84455-20.999775-50.610456z" p-id="37502" fill="#1296db"></path><path d="M744.195006 599.032565c-2.695971 1.347986-8.768906 2.952968-22.38976 2.952968-3.858959 0-8.174912-0.130999-12.823862-0.390995l-9.3419-0.01c8.632907-12.437866 19.223793-29.101687 31.603661-49.733466 5.044946-7.581919 7.010925-8.894904 7.166923-8.991903l1.801981-0.899991 0.89299-1.80698c0.686993-1.386985 1.382985-2.77297 2.082978-4.167956l0.961989-1.919979a6.244933 6.244933 0 0 0 0.737992-4.157955c-0.564994-3.306964-2.702971-5.106945-12.03687-10.134891-5.912936-3.185966-14.791841-7.618918-26.390717-13.175859l-6.305932-3.020967-2.028978 6.689928a282.218968 282.218968 0 0 1-10.560887 29.005688v-13.647853l-6.993925 1.173987c-12.259868 2.060978-22.107763 3.103967-29.271685 3.103967h-1.86798c0.437995-13.343857 2.372975-24.420738 5.766938-32.989646 1.394985-2.899969 2.101977-5.858937 2.101977-8.798905 0-2.582972-1.304986-5.832937-7.518919-6.639929-1.715982-0.222998-4.129956-0.399996-7.381921-0.541994-6.212933-0.271997-15.544833-0.409996-27.737702-0.409996h-5.999935v47.790487h-8.336911l-0.353996 0.01c-5.911936 0.349996-11.17788 0.526994-15.651832 0.526994-10.956882 0-15.224836-1.062989-16.792819-1.694982l-8.245912-3.329964v45.161515h18.743799c6.562929 0 14.712842-0.536994 24.22874-1.593983h8.002914v35.788616h-8.238912c-40.910561-1.341986-50.633456-2.456974-52.787433-3.001968l-7.47192-1.89098v43.974528h23.522748l0.651993-0.035c9.450898-1.034989 22.094763-1.558983 37.578596-1.558983h17.160816c-6.153934 6.642929-13.158859 13.288857-20.936775 19.860786h-24.525737v21.192773c-7.346921 7.700917-20.747777 17.417813-39.891571 28.919689-1.255987 0.614993-1.89598 0.808991-2.107978 0.860991h-3.347964v-64.091312c0-15.263836 1.522984-28.081698 4.525952-38.10159l3.578961-11.937872-11.562876 4.64595c-1.577983 0.634993-5.861937 1.698982-16.812819 1.698982-4.471952 0-9.733895-0.177998-15.639832-0.526995l-0.378996-0.022999-0.378996 0.024999c-14.93584 1.003989-26.504715 0.045-34.127633-2.815969l-7.259922-2.724971v-30.499672c3.042967-8.931904 7.072924-17.921807 11.984871-26.735713l0.127999-0.243998a6863.366272 6863.366272 0 0 1 9.554897-19.108794c1.099988-2.198976 2.79997-4.464952 5.077945-6.767928l1.664982 3.483963c11.361878 23.790744 18.686799 47.312492 21.770767 69.909249l0.92499 6.776927 47.503489-12.954861-1.667982-5.839937c-6.377931-22.31976-14.478844-46.083505-24.076741-70.627241l-1.89998-4.859948-38.824583 9.243901c2.383974-2.456974 4.171955-4.907947 5.457942-7.47992l1.933979-3.867958-3.056967-3.057968c-3.099967-3.099967-10.991882-7.174923-47.445491-15.928828l-5.741938-1.378986-1.469984 5.718939c-18.775798 73.025216-45.108515 128.44062-78.266159 164.708231l-4.605951 5.038945 5.58794 3.921958c10.440888 7.325921 20.44278 15.222836 29.729681 23.468748l5.958936 5.292943 3.437963-7.190922a6011.602422 6011.602422 0 0 0 14.074849-29.622682v124.117667c-1.055989 35.567618-2.630972 59.358362-4.68395 70.70624l-1.277986 7.065924h51.313448l-1.637982-7.310921c-2.014978-8.995903-2.502973-32.61665-1.450984-70.204246l0.002-131.164591h17.894807c5.886937 0 12.418867-0.321997 19.487791-0.95699V774.56168c-0.95299 9.616897-5.734938 16.888819-14.613843 22.224761l-7.222922 4.339953 6.46593 5.405942c5.958936 4.979947 12.566865 12.628864 19.641789 22.731756l3.971958 5.671939 5.048945-4.737949c16.634821-15.608832 36.939603-33.776637 60.350352-53.99542l4.021957-3.474963-2.963968-4.411952c-1.260986-1.87498-4.345953-8.071913-11.881873-26.876712 0.90399 0.870991 1.792981 1.741981 2.665972 2.612972l3.557961 3.544962 4.116956-2.878969c5.537941-3.874958 10.336889-7.43892 14.454845-10.743884v62.985323a6736.515635 6736.515635 0 0 1-3.170966 47.558489l-0.449995 6.419931h47.48049v-5.999935c0-2.513973-0.520994-5.431942-1.592983-8.895905v-10.591886h63.242321a402.443677 402.443677 0 0 0-1.90698 12.280868l-0.058999 0.415995v11.19888h48.740476l-1.87598-7.46292c-1.006989-4.003957-2.017978-10.065892-3.004968-18.022806V714.314327c0-22.050763 0.522994-37.903593 1.555984-47.120494l0.86299-7.710917-7.680917 1.103988c-7.065924 1.015989-21.249772 1.530984-42.155547 1.530983h-22.989753c6.53493-6.999925 13.460855-14.177848 20.699777-21.452769h33.771638c7.710917 0.97499 15.593832 2.026978 23.437748 3.126966l0.414995 0.059h20.755777v-49.159472l-8.681906 4.340953zM619.06735 724.24422V698.012502h64.462307v26.231718h-64.462307z m0 66.905281v-31.011667h64.462307v31.011667h-64.462307z m30.266675-187.97198V566.223918c9.069903 0.644993 17.067817 1.294986 23.909743 1.942979-6.853926 12.08387-14.625843 23.770745-23.28575 35.009624h-0.623993zM529.860308 722.334241a296.341817 296.341817 0 0 1 14.708842 12.226868l-3.398963 5.099945a124.259665 124.259665 0 0 1-11.309879 14.520844v-31.847657zM642.3601 141.45648l123.877669 100.436922c2.83797 2.293975 6.749927 3.603961 10.747884 3.603961 4.013957 0 7.938915-1.310986 10.743885-3.603961l123.894669-100.436922c4.343953-3.520962 5.642939-8.822905 3.288965-13.424855-2.354975-4.606951-7.907915-7.608918-14.052849-7.608919h-66.11629v-64.609306 5.220944-48.537478C834.745033 5.59494 827.843107 0 819.329199 0h-84.673091c-8.509909 0-15.407834 5.58994-15.415834 12.485866v48.547478-5.220944 64.608306h-66.13429c-6.159934 0-11.696874 3.001968-14.050849 7.608919a10.316889 10.316889 0 0 0-1.142988 4.706949c0.001 3.213965 1.523984 6.362932 4.447953 8.719906zM599.403561 25.315728C597.61258 10.22089 589.181671 1.788981 574.087833 0c-8.889905 0.89499-15.550833 4.454952-19.985785 10.657886l-49.297471 70.617241-49.29847-70.617241C451.050155 4.454952 444.388226 0.89499 435.520322 0c-15.114838 1.788981-23.546747 10.22089-25.314728 25.315728 0 5.328943 1.768981 10.22089 5.329942 14.655843l42.635542 59.954356h-27.979699c-9.784895 0.89599-15.112838 5.789938-15.987828 14.657842 0.874991 8.888905 6.202933 13.781852 15.987828 14.655843h49.29847v22.650756h-49.29847c-9.784895 0.89599-15.112838 5.786938-15.987828 14.656843 0.874991 8.887905 6.202933 13.781852 15.987828 14.655842h49.29847v41.305557c0.873991 15.111838 9.3259 22.648757 25.314728 22.648756 15.986828 0 24.420738-7.536919 25.315728-22.648756v-41.305557h49.297471c9.763895-0.873991 15.093838-5.767938 15.987828-14.655842-0.89499-8.869905-6.224933-13.760852-15.987828-14.656843h-49.297471v-22.650756h49.297471c9.763895-0.873991 15.093838-5.766938 15.987828-14.655843-0.89499-8.868905-6.224933-13.761852-15.987828-14.657842h-27.9797l42.635542-59.954356c3.538962-4.434952 5.329943-9.3269 5.329943-14.655843z" p-id="37503" fill="#1296db"></path></svg>