<?xml version="1.0" standalone="no"?><!DOCTYPE svg PUBLIC "-//W3C//DTD SVG 1.1//EN" "http://www.w3.org/Graphics/SVG/1.1/DTD/svg11.dtd"><svg t="1637203921356" class="icon" viewBox="0 0 1024 1024" version="1.1" xmlns="http://www.w3.org/2000/svg" p-id="11204" xmlns:xlink="http://www.w3.org/1999/xlink" width="880" height="880"><defs><style type="text/css"></style></defs><path d="M794.88 996.693333H250.026667c-65.706667 0-119.466667-53.333333-119.466667-119.466666V177.066667c0-65.706667 53.333333-119.466667 119.466667-119.466667h422.4a21.333333 21.333333 0 0 1 14.933333 5.973333l220.586667 216.32c4.266667 3.84 6.4 9.386667 6.4 15.36v581.973334c0 65.706667-53.76 119.466667-119.466667 119.466666z m-544.853333-896c-42.24 0-76.8 34.56-76.8 76.8v700.16c0 42.24 34.56 76.8 76.8 76.8h544.853333c42.24 0 76.8-34.56 76.8-76.8V304.213333l-207.786667-203.946666c0 0.426667-413.866667 0.426667-413.866666 0.426666z" fill="#1296db" p-id="11205"></path><path d="M767.146667 713.813333h-2.986667V319.146667c0-11.946667-9.386667-21.333333-21.333333-21.333334h-146.773334c-11.946667 0-21.333333 9.386667-21.333333 21.333334v101.12h-125.44c-11.946667 0-21.333333 9.386667-21.333333 21.333333v101.12H302.08c-11.946667 0-21.333333 9.386667-21.333333 21.333333v150.186667H277.333333c-11.946667 0-21.333333 9.386667-21.333333 21.333333s9.386667 21.333333 21.333333 21.333334H766.293333c11.946667 0 21.333333-9.386667 21.333334-21.333334s-8.533333-21.76-20.48-21.76z m-443.733334-128.426666h104.106667v128.853333H323.413333v-128.853333z m146.773334-21.333334v-101.12h104.106666v251.306667h-104.106666v-150.186667z m147.2 149.76v-272.64-101.12h104.106666v373.76h-104.106666z" fill="#1296db" p-id="11206"></path></svg>