<?xml version="1.0" standalone="no"?><!DOCTYPE svg PUBLIC "-//W3C//DTD SVG 1.1//EN" "http://www.w3.org/Graphics/SVG/1.1/DTD/svg11.dtd"><svg t="1637204926596" class="icon" viewBox="0 0 1024 1024" version="1.1" xmlns="http://www.w3.org/2000/svg" p-id="17489" xmlns:xlink="http://www.w3.org/1999/xlink" width="880" height="880"><defs><style type="text/css"></style></defs><path d="M640.512 532.48L454.144 84.48H390.144l-320 768h448V788.48H160.768l261.12-627.2 154.624 371.2h64zM454.144 404.48H390.144v192h64V404.48z m-64 320h64V660.48H390.144v64z" p-id="17490" fill="#1296db"></path><path d="M792.064 582.656c22.016 7.168 41.472 18.432 58.368 33.28-7.168 17.92-5.632 38.4 4.096 55.296 10.24 17.408 27.648 28.672 46.08 31.232 4.608 22.016 4.608 45.056 0 67.072-19.456 3.072-36.352 14.336-46.592 31.232-9.728 16.896-11.264 37.376-4.096 55.296-16.896 14.848-36.864 26.624-57.856 33.28-12.288-14.848-30.72-23.552-49.664-23.552-19.968 0-37.888 9.216-49.664 23.552-21.504-7.168-41.472-18.432-58.368-33.28 7.168-17.92 5.632-38.4-4.096-55.296-9.728-16.896-26.624-28.672-46.08-31.232-4.608-22.016-4.608-45.056 0-67.072 18.432-3.072 35.84-13.824 46.08-31.232 10.24-17.408 10.752-37.376 4.096-55.296 16.896-14.848 36.352-26.624 58.368-33.792 11.776 14.336 29.696 24.064 49.664 24.064 19.968 0 37.376-9.216 49.664-23.552m-99.84-50.176c-5.12 0-10.24 1.024-15.36 2.56-28.16 9.216-54.272 24.064-76.288 44.032-15.36 13.824-20.48 35.328-13.312 54.272 1.536 4.096 1.536 8.704-1.024 12.8s-6.144 6.656-10.752 7.168c-20.48 3.072-36.864 18.944-40.96 38.912-6.144 28.672-6.144 58.368 0 87.552 4.096 20.48 20.48 35.84 40.96 38.912 2.56 0.512 7.68 2.048 10.752 7.168 2.048 4.096 2.56 8.704 1.024 12.8-7.168 19.456-2.048 40.96 13.312 54.784 22.016 19.968 47.616 34.304 76.288 43.52 19.456 6.144 40.96 0 53.76-15.872 2.56-3.584 7.168-5.632 11.264-5.632 5.632 0 9.728 3.584 11.264 5.632 12.8 15.872 34.304 22.016 53.76 15.872 28.16-9.216 54.272-24.064 75.776-43.52 15.36-13.824 20.48-35.328 13.312-54.784-1.536-4.096-1.536-8.704 1.024-12.8s6.144-6.656 10.752-7.168c20.48-3.072 36.864-18.944 41.472-38.912 6.144-28.672 6.144-58.368 0-87.552-4.096-20.48-20.48-35.84-40.96-38.912-4.608-0.512-8.192-3.072-10.752-7.168-2.048-4.096-2.56-8.704-1.024-12.8 7.168-18.944 2.048-40.96-13.312-54.784-22.016-19.968-48.128-34.816-76.288-44.032-19.456-6.144-40.96 0-53.76 15.872-2.56 3.584-7.168 5.632-11.264 5.632-4.608 0-8.704-2.048-11.264-5.632-9.216-11.264-23.552-17.92-38.4-17.92z" p-id="17491" fill="#1296db"></path><path d="M741.888 711.168c13.824 0 25.088 11.264 25.088 25.088s-11.264 25.088-25.088 25.088-25.088-11.264-25.088-25.088c0.512-13.824 11.264-25.088 25.088-25.088m0-50.176c-41.472 0-74.752 33.28-74.752 74.752s33.28 74.752 74.752 74.752 74.752-33.28 74.752-74.752c0-40.96-33.28-74.24-74.752-74.752z" p-id="17492" fill="#1296db"></path></svg>