<?xml version="1.0" standalone="no"?><!DOCTYPE svg PUBLIC "-//W3C//DTD SVG 1.1//EN" "http://www.w3.org/Graphics/SVG/1.1/DTD/svg11.dtd"><svg t="1637206795381" class="icon" viewBox="0 0 1024 1024" version="1.1" xmlns="http://www.w3.org/2000/svg" p-id="29100" xmlns:xlink="http://www.w3.org/1999/xlink" width="880" height="880"><defs><style type="text/css"></style></defs><path d="M295.308387 149.966452l6.606452 23.783225h387.798709l65.403871 65.403871v578.064517c0 13.212903-10.570323 23.783226-23.783225 23.783225h-429.419355c-13.212903 0-23.783226-10.570323-23.783226-23.783225V197.532903c0-13.212903 10.570323-23.783226 23.783226-23.783226l6.606451-23.783225-6.606451-23.783226c-39.63871 0-71.349677 31.710968-71.349678 71.349677v619.685162c0 39.63871 31.710968 71.349677 71.349678 71.349677h429.419355c39.63871 0 71.349677-31.710968 71.349677-71.349677V219.334194L709.532903 125.522581H301.914839v23.783225h-6.606452z" p-id="29101" fill="#1296db"></path><path d="M349.48129 260.954839v23.783226h103.721291v143.36H373.264516V260.954839h-23.783226v23.783226-23.783226h-23.783225V475.664516h175.070967V237.171613H325.698065v23.783226h23.783225z" p-id="29102" fill="#1296db"></path><path d="M349.48129 562.869677v23.783226h103.721291v143.36H373.264516V562.869677h-23.783226v23.783226-23.783226h-23.783225v214.709678h175.070967V539.086452H325.698065v23.783225h23.783225z" p-id="29103" fill="#1296db"></path><path d="M572.11871 284.738065h110.988387c13.212903 0 23.783226-10.570323 23.783226-23.783226s-10.570323-23.783226-23.783226-23.783226H572.11871c-13.212903 0-23.783226 10.570323-23.783226 23.783226s10.570323 23.783226 23.783226 23.783226" p-id="29104" fill="#1296db"></path><path d="M572.11871 379.870968h110.988387c13.212903 0 23.783226-10.570323 23.783226-23.783226s-10.570323-23.783226-23.783226-23.783226H572.11871c-13.212903 0-23.783226 10.570323-23.783226 23.783226s10.570323 23.783226 23.783226 23.783226" p-id="29105" fill="#1296db"></path><path d="M572.11871 475.664516h110.988387c13.212903 0 23.783226-10.570323 23.783226-23.783226s-10.570323-23.783226-23.783226-23.783225H572.11871c-13.212903 0-23.783226 10.570323-23.783226 23.783225s10.570323 23.783226 23.783226 23.783226" p-id="29106" fill="#1296db"></path><path d="M572.11871 586.652903h110.988387c13.212903 0 23.783226-10.570323 23.783226-23.783226s-10.570323-23.783226-23.783226-23.783225H572.11871c-13.212903 0-23.783226 10.570323-23.783226 23.783225s10.570323 23.783226 23.783226 23.783226" p-id="29107" fill="#1296db"></path><path d="M572.11871 682.446452h110.988387c13.212903 0 23.783226-10.570323 23.783226-23.783226s-10.570323-23.783226-23.783226-23.783226H572.11871c-13.212903 0-23.783226 10.570323-23.783226 23.783226s10.570323 23.783226 23.783226 23.783226" p-id="29108" fill="#1296db"></path><path d="M572.11871 777.579355h110.988387c13.212903 0 23.783226-10.570323 23.783226-23.783226s-10.570323-23.783226-23.783226-23.783226H572.11871c-13.212903 0-23.783226 10.570323-23.783226 23.783226s10.570323 23.783226 23.783226 23.783226" p-id="29109" fill="#1296db"></path></svg>