<?xml version="1.0" standalone="no"?><!DOCTYPE svg PUBLIC "-//W3C//DTD SVG 1.1//EN" "http://www.w3.org/Graphics/SVG/1.1/DTD/svg11.dtd"><svg t="1637206776328" class="icon" viewBox="0 0 1024 1024" version="1.1" xmlns="http://www.w3.org/2000/svg" p-id="28875" xmlns:xlink="http://www.w3.org/1999/xlink" width="880" height="880"><defs><style type="text/css"></style></defs><path d="M864 960c-9.7 0-19.3-4.4-25.6-12.8l-3.8-5c-20.2-27-30.9-60.4-30.1-94.2 0.9-33.7 13.2-66.6 34.8-92.5 11.3-13.6 31.5-15.4 45.1-4.1 13.6 11.3 15.4 31.5 4.1 45.1-25.8 30.9-26.9 75.1-2.7 107.3l3.8 5c10.6 14.1 7.7 34.2-6.4 44.8-5.8 4.3-12.5 6.4-19.2 6.4z" fill="#1296db" p-id="28876"></path><path d="M864 808c-17.7 0-32-14.3-32-32V160c0-17.6-14.4-32-32-32H224c-17.6 0-32 14.4-32 32v616c0 17.7-14.3 32-32 32s-32-14.3-32-32V160c0-52.9 43.1-96 96-96h576c52.9 0 96 43.1 96 96v616c0 17.7-14.3 32-32 32z" fill="#1296db" p-id="28877"></path><path d="M863 960H224c-52.9 0-96-43.1-96-96v-96c0-17.7 14.3-32 32-32s32 14.3 32 32v96c0 17.6 14.4 32 32 32h639c17.7 0 32 14.3 32 32s-14.3 32-32 32z" fill="#1296db" p-id="28878"></path><path d="M863 800H160c-17.7 0-32-14.3-32-32s14.3-32 32-32h703c17.7 0 32 14.3 32 32s-14.3 32-32 32zM512 600c-92.6 0-168-75.4-168-168s75.4-168 168-168 168 75.4 168 168-75.4 168-168 168z m0-272c-57.3 0-104 46.7-104 104s46.7 104 104 104 104-46.7 104-104-46.7-104-104-104z" fill="#1296db" p-id="28879"></path><path d="M512 320c-17.7 0-32-14.3-32-32v-64c0-17.7 14.3-32 32-32s32 14.3 32 32v64c0 17.7-14.3 32-32 32zM512 672c-17.7 0-32-14.3-32-32v-64c0-17.7 14.3-32 32-32s32 14.3 32 32v64c0 17.7-14.3 32-32 32zM410.2 362.2c-8.2 0-16.4-3.1-22.6-9.4l-45.3-45.3c-12.5-12.5-12.5-32.8 0-45.3s32.8-12.5 45.3 0l45.3 45.3c12.5 12.5 12.5 32.8 0 45.3-6.3 6.3-14.5 9.4-22.7 9.4zM659.1 611.1c-8.2 0-16.4-3.1-22.6-9.4l-45.3-45.3c-12.5-12.5-12.5-32.8 0-45.3s32.8-12.5 45.3 0l45.3 45.3c12.5 12.5 12.5 32.8 0 45.3-6.3 6.3-14.5 9.4-22.7 9.4z" fill="#1296db" p-id="28880"></path><path d="M368 464h-64c-17.7 0-32-14.3-32-32s14.3-32 32-32h64c17.7 0 32 14.3 32 32s-14.3 32-32 32zM720 464h-64c-17.7 0-32-14.3-32-32s14.3-32 32-32h64c17.7 0 32 14.3 32 32s-14.3 32-32 32z" fill="#1296db" p-id="28881"></path><path d="M364.9 611.1c-8.2 0-16.4-3.1-22.6-9.4-12.5-12.5-12.5-32.8 0-45.3l45.3-45.3c12.5-12.5 32.8-12.5 45.3 0s12.5 32.8 0 45.3l-45.3 45.3c-6.3 6.3-14.5 9.4-22.7 9.4zM613.8 362.2c-8.2 0-16.4-3.1-22.6-9.4-12.5-12.5-12.5-32.8 0-45.3l45.3-45.3c12.5-12.5 32.8-12.5 45.3 0s12.5 32.8 0 45.3l-45.3 45.3c-6.3 6.3-14.5 9.4-22.7 9.4z" fill="#1296db" p-id="28882"></path></svg>