<?xml version="1.0" standalone="no"?><!DOCTYPE svg PUBLIC "-//W3C//DTD SVG 1.1//EN" "http://www.w3.org/Graphics/SVG/1.1/DTD/svg11.dtd"><svg t="1637206841616" class="icon" viewBox="0 0 1024 1024" version="1.1" xmlns="http://www.w3.org/2000/svg" p-id="30871" xmlns:xlink="http://www.w3.org/1999/xlink" width="880" height="880"><defs><style type="text/css"></style></defs><path d="M554.49463467 228.999168h344.44629333c27.89649067 0 50.511872-22.22762667 50.511872-49.64898133 0-27.41589333-22.61538133-49.64352-50.511872-49.64352h-344.44629333c-27.901952 0-50.511872 22.22762667-50.511872 49.64352h-0.00546134c0 27.42135467 22.61538133 49.64898133 50.51733334 49.64898133zM261.46679467 140.89147733c-6.668288-6.54267733-16.171008-10.14715733-26.74961067-10.14715733-9.75940267 0-17.97870933 3.080192-27.394048 10.29461333l-121.356288 133.64974934c-6.76113067 6.64098133-10.32738133 15.01320533-10.32738133 24.22101333 0 18.66683733 16.63522133 33.86026667 37.07153066 33.86026667 8.57429333 0 15.941632-3.64817067 24.48315734-12.02039467l62.537728-67.01056v194.82760533c0 19.93386667 14.37969067 33.86026667 34.98530133 33.86026667 20.922368 0 34.45009067-13.29834667 34.455552-33.86026667v-194.82760533l62.373888 66.830336c7.77693867 7.634944 17.96232533 12.20061867 27.25751467 12.20061867 18.35554133 0 34.455552-15.82148267 34.455552-33.86026667 0-10.174464-4.046848-17.86402133-8.290304-24.84360533L261.46679467 140.89147733z m97.337344 551.36529067c-9.29518933 0-19.480576 4.571136-27.25751467 12.20608l-62.373888 66.830336V576.47104c-0.00546133-20.56738133-13.533184-33.865728-34.455552-33.865728-20.60561067 0-34.98530133 13.9264-34.98530133 33.865728V771.293184l-62.537728-67.01056c-8.54152533-8.372224-15.908864-12.025856-24.48315734-12.025856-20.43630933 0-37.07153067 15.19342933-37.07153066 33.865728 0 9.20234667 3.56625067 17.580032 10.32738133 24.22101333L207.323136 883.99872c9.41533867 7.20349867 17.63464533 10.29461333 27.394048 10.29461333 10.57860267 0 20.08132267-3.60448 26.74961067-10.15261866L384.96938667 750.96610133c4.243456-6.979584 8.290304-14.66914133 8.290304-24.84360533 0-18.038784-16.10001067-33.865728-34.455552-33.865728z m540.13678933-340.7872h-344.44629333c-27.901952 0-50.511872 22.22762667-50.511872 49.64898133h-0.00546134c0 27.410432 22.61538133 49.64352 50.51733334 49.64352h344.44629333c27.89649067 0 50.511872-22.22762667 50.511872-49.64352 0-27.42135467-22.61538133-49.64898133-50.511872-49.64898133z m0 221.76290133h-344.44629333c-27.901952 0-50.511872 22.22762667-50.511872 49.64898134h-0.00546134c0 27.41589333 22.61538133 49.64352 50.51733334 49.64352h344.44629333c27.89649067 0 50.511872-22.22216533 50.511872-49.64352s-22.61538133-49.64898133-50.511872-49.64898134z m0 221.76290134h-344.44629333c-27.901952 0-50.511872 22.233088-50.511872 49.64898133h-0.00546134c0 27.41589333 22.61538133 49.64898133 50.51733334 49.64898133h344.44629333c27.89649067 0 50.511872-22.22762667 50.511872-49.64898133 0-27.41589333-22.61538133-49.64898133-50.511872-49.64898133z" fill="#1296db" p-id="30872"></path></svg>