<?xml version="1.0" standalone="no"?><!DOCTYPE svg PUBLIC "-//W3C//DTD SVG 1.1//EN" "http://www.w3.org/Graphics/SVG/1.1/DTD/svg11.dtd"><svg t="1637203153944" class="icon" viewBox="0 0 1024 1024" version="1.1" xmlns="http://www.w3.org/2000/svg" p-id="6754" xmlns:xlink="http://www.w3.org/1999/xlink" width="880" height="880"><defs><style type="text/css"></style></defs><path d="M761.403857 295.666424a295.270368 295.270368 0 1 0-451.173123 250.389273A466.133488 466.133488 0 0 0 0 984.630618a39.369382 39.369382 0 0 0 78.738765 0 387.788417 387.788417 0 0 1 387.394723-387.394724 382.670398 382.670398 0 0 1 168.500957 39.369383l29.920731-72.833358a363.3794 363.3794 0 0 0-42.125239-17.322528 294.482981 294.482981 0 0 0 138.97392-250.782967z m-511.801972 0a216.531604 216.531604 0 1 1 216.531603 216.531604 216.925297 216.925297 0 0 1-216.531603-216.531604zM1012.974211 861.798144l-32.282894-18.50361a154.327979 154.327979 0 0 0 0-99.604537l32.282894-18.897304a20.472079 20.472079 0 0 0 7.873876-28.345955l-20.865772-36.613526a21.259467 21.259467 0 0 0-28.73965-7.480182l-31.889199 18.503609a175.193752 175.193752 0 0 0-86.612642-49.999115v-37.00722a21.259467 21.259467 0 0 0-21.259466-20.865773h-41.731546a20.865773 20.865773 0 0 0-20.865773 20.865773v37.00722A174.800058 174.800058 0 0 0 681.877704 669.675558l-31.8892-18.50361a21.259467 21.259467 0 0 0-28.739649 7.480183l-20.865772 36.613525a20.865773 20.865773 0 0 0 7.873876 28.345956l32.282894 18.897303a154.327979 154.327979 0 0 0 0 99.604538l-32.282894 18.50361a21.259467 21.259467 0 0 0-7.873876 28.739649l20.865772 36.219832a21.259467 21.259467 0 0 0 28.739649 7.873876l31.8892-18.503609a177.555915 177.555915 0 0 0 87.006335 49.999115v37.00722a20.865773 20.865773 0 0 0 20.865773 20.865773h41.731546a21.259467 21.259467 0 0 0 21.259466-20.865773v-37.00722a178.343303 178.343303 0 0 0 86.612642-49.999115l31.889199 18.503609a21.259467 21.259467 0 0 0 28.73965-7.873876l20.865772-36.219832a20.865773 20.865773 0 0 0-7.873876-27.558568z m-202.358626 36.613526a105.116251 105.116251 0 1 1 104.722557-105.116251 105.116251 105.116251 0 0 1-104.722557 105.116251z" p-id="6755" fill="#1296db"></path></svg>