<?xml version="1.0" standalone="no"?><!DOCTYPE svg PUBLIC "-//W3C//DTD SVG 1.1//EN" "http://www.w3.org/Graphics/SVG/1.1/DTD/svg11.dtd"><svg t="1637207172486" class="icon" viewBox="0 0 1159 1024" version="1.1" xmlns="http://www.w3.org/2000/svg" p-id="36056" xmlns:xlink="http://www.w3.org/1999/xlink" width="996.015625" height="880"><defs><style type="text/css"></style></defs><path d="M636.196612 1023.996793a21.27738 21.27738 0 0 1-13.412675-4.70663l-132.017305-106.082068-133.285413 106.143035a21.338347 21.338347 0 0 1-25.118283 1.073014l-153.745839-102.350906-144.966633 102.033879a21.338347 21.338347 0 0 1-22.106528 1.487588A21.338347 21.338347 0 0 1 0.033422 1002.658446V32.897635A21.338347 21.338347 0 0 1 21.371769 11.620254 21.338347 21.338347 0 0 1 42.710116 32.958601v928.644865l123.335646-86.828782a21.338347 21.338347 0 0 1 24.106236-0.317027l152.989852 101.814399 134.48036-107.118503a21.338347 21.338347 0 0 1 26.666837 0l130.602877 104.972475 96.863903-94.339881a21.338347 21.338347 0 0 1 28.166618-1.414428l121.092071 96.327396 99.985398-91.645153a21.338347 21.338347 0 0 1 26.983864-1.511974l108.776797 79.256718V32.897635a21.338347 21.338347 0 0 1 21.338347-21.338348 21.338347 21.338347 0 0 1 21.338347 21.338348V1002.658446a21.338347 21.338347 0 0 1-33.909682 17.241385L996.960998 926.230583l-100.534098 92.157273a21.338347 21.338347 0 0 1-27.703272 0.975467l-120.653111-95.925015-96.985835 94.498395a21.301767 21.301767 0 0 1-14.88807 6.06009z" p-id="36057" fill="#1296db"></path><path d="M178.239104 161.01307a21.301767 21.301767 0 0 1-12.193342-3.889675L9.080881 46.688303a21.338347 21.338347 0 0 1-5.206556-29.727365 21.338347 21.338347 0 0 1 29.727365-5.169977l144.125293 101.399825L319.352641 4.41399a21.338347 21.338347 0 0 1 25.959624 0l136.821481 104.5579L613.004877 5.828417a21.338347 21.338347 0 0 1 27.898365 1.280301l106.972182 101.533952 120.848204-96.071335a21.338347 21.338347 0 0 1 27.703272 0.975467l100.534098 92.157273L1125.527587 12.034828a21.338347 21.338347 0 0 1 29.812719 4.682243 21.338347 21.338347 0 0 1-4.682243 29.812719l-142.662091 103.960427a21.338347 21.338347 0 0 1-26.983865-1.511974l-99.985397-91.645153-121.092072 96.327396a21.338347 21.338347 0 0 1-27.971524-1.219334l-107.033149-101.582726-129.37135 101.972912a21.338347 21.338347 0 0 1-26.166911 0.195094L332.387323 48.200278l-141.101344 108.398803a21.31396 21.31396 0 0 1-13.046875 4.413989zM410.0711 364.080975c-24.386682-24.386682-44.530082-38.006644-81.939253-38.006645-41.5671 0-68.880184 27.313084-68.880185 66.502483 0 100.936478 186.436187 71.245693 186.436187 215.529499 0 62.942027-39.786872 105.691881-102.131426 114.00774v65.905009h-36.214223v-65.307535c-42.749854-4.157929-84.902235-25.532856-112.178739-51.065713l23.167348-33.251242c27.264311 24.350102 61.113026 44.542275 102.667933 44.542276 51.065713 0 77.18385-27.910558 77.18385-71.245693 0-112.812793-186.436187-86.097182-186.436187-216.724446 0-58.186624 39.189399-100.339005 95.595795-108.654864v-65.905009h36.214223v65.307536c42.15238 4.157929 69.502045 24.386682 92.669393 49.285485zM1013.897549 376.469409H604.713405a21.338347 21.338347 0 0 1-21.338347-21.338347 21.338347 21.338347 0 0 1 21.338347-21.338347h409.184144a21.338347 21.338347 0 0 1 21.338347 21.338347 21.338347 21.338347 0 0 1-21.338347 21.338347zM1013.897549 530.056735H604.713405a21.338347 21.338347 0 0 1-21.338347-21.338347 21.338347 21.338347 0 0 1 21.338347-21.338347h409.184144a21.338347 21.338347 0 0 1 21.338347 21.338347 21.338347 21.338347 0 0 1-21.338347 21.338347zM1013.897549 683.644061H604.713405a21.338347 21.338347 0 1 1 0-42.676695h409.184144a21.338347 21.338347 0 0 1 0 42.676695z" p-id="36058" fill="#1296db"></path></svg>