<?xml version="1.0" standalone="no"?><!DOCTYPE svg PUBLIC "-//W3C//DTD SVG 1.1//EN" "http://www.w3.org/Graphics/SVG/1.1/DTD/svg11.dtd"><svg t="1637207367631" class="icon" viewBox="0 0 1024 1024" version="1.1" xmlns="http://www.w3.org/2000/svg" p-id="41398" xmlns:xlink="http://www.w3.org/1999/xlink" width="880" height="880"><defs><style type="text/css"></style></defs><path d="M882.80576 916.73088c-21.31968-153.49248-125.48608-270.45376-269.55776-307.94752 100.7872-40.40704 171.96544-138.98752 171.96544-254.208 0-151.20384-122.5728-273.78688-273.78688-273.78688-151.20384 0-273.78688 122.57792-273.78688 273.78688 0 115.28704 71.26016 213.91872 172.1344 254.27968-144.77824 37.7856-249.18528 155.84256-269.64992 310.56384-0.512 1.6896-0.7936 3.48672-0.7936 5.34528 0 10.1888 8.25856 18.45248 18.45248 18.45248 10.1888 0 18.45248-8.25856 18.45248-18.45248 0-1.01888-0.10752-2.01216-0.26112-2.97984 23.83872-164.0448 165.01248-290.05824 335.6672-290.05824 171.68384 0 313.55904 127.5392 336.10752 293.03808l0.01536 0c0 10.1888 8.25344 18.45248 18.45248 18.45248 10.1888 0 18.45248-8.25856 18.45248-18.45248C884.6592 921.8816 883.97824 919.15776 882.80576 916.73088L882.80576 916.73088zM273.35168 354.57024c0-124.90752 113.16736-238.07488 238.07488-238.07488s238.07488 113.16736 238.07488 238.07488-113.16736 238.07488-238.07488 238.07488S273.35168 479.47776 273.35168 354.57024L273.35168 354.57024z" p-id="41399" fill="#1296db"></path></svg>