<?xml version="1.0" standalone="no"?><!DOCTYPE svg PUBLIC "-//W3C//DTD SVG 1.1//EN" "http://www.w3.org/Graphics/SVG/1.1/DTD/svg11.dtd"><svg t="1637205618147" class="icon" viewBox="0 0 1024 1024" version="1.1" xmlns="http://www.w3.org/2000/svg" p-id="20336" xmlns:xlink="http://www.w3.org/1999/xlink" width="880" height="880"><defs><style type="text/css"></style></defs><path d="M170.666667 170.666667v682.666666h682.666666V170.666667H170.666667z m0-42.666667h682.666666a42.666667 42.666667 0 0 1 42.666667 42.666667v682.666666a42.666667 42.666667 0 0 1-42.666667 42.666667H170.666667a42.666667 42.666667 0 0 1-42.666667-42.666667V170.666667a42.666667 42.666667 0 0 1 42.666667-42.666667z" fill="#1296db" p-id="20337"></path><path d="M426.666667 384h298.666666v42.666667h-298.666666zM298.666667 384h85.333333v42.666667H298.666667zM426.666667 554.666667h298.666666v42.666666h-298.666666zM298.666667 554.666667h85.333333v42.666666H298.666667z" fill="#1296db" p-id="20338"></path></svg>