<?xml version="1.0" standalone="no"?><!DOCTYPE svg PUBLIC "-//W3C//DTD SVG 1.1//EN" "http://www.w3.org/Graphics/SVG/1.1/DTD/svg11.dtd"><svg t="1637206867663" class="icon" viewBox="0 0 1024 1024" version="1.1" xmlns="http://www.w3.org/2000/svg" p-id="31797" xmlns:xlink="http://www.w3.org/1999/xlink" width="880" height="880"><defs><style type="text/css"></style></defs><path d="M824.32 926.72h-614.4c-23.552 0-44.032-18.432-44.032-40.96v-737.28c0-22.528 19.456-40.96 44.032-40.96h614.4c23.552 0 44.032 18.432 44.032 40.96v738.304c0 21.504-20.48 39.936-44.032 39.936z m-613.376-41.984h611.328V149.504H210.944v735.232z" fill="#1296db" p-id="31798"></path><path d="M179.2 270.336h675.84v44.032h-675.84zM670.72 593.92h-307.2c-11.264 0-20.48-9.216-20.48-20.48s9.216-20.48 20.48-20.48h307.2c11.264 0 20.48 9.216 20.48 20.48s-9.216 20.48-20.48 20.48z" fill="#1296db" p-id="31799"></path><path d="M494.592 574.464l-97.28-105.472c-8.192-8.192-7.168-21.504 1.024-28.672 8.192-7.168 21.504-7.168 28.672 1.024l97.28 105.472c7.168 8.192 7.168 21.504-1.024 28.672-8.192 8.192-21.504 7.168-28.672-1.024z" fill="#1296db" p-id="31800"></path><path d="M539.648 574.464l97.28-105.472c7.168-8.192 7.168-21.504-1.024-28.672-8.192-7.168-21.504-7.168-28.672 1.024l-97.28 105.472c-7.168 8.192-7.168 21.504 1.024 28.672 8.192 8.192 21.504 7.168 28.672-1.024zM670.72 709.632h-307.2c-11.264 0-20.48-9.216-20.48-20.48s9.216-20.48 20.48-20.48h307.2c11.264 0 20.48 9.216 20.48 20.48s-9.216 20.48-20.48 20.48z" fill="#1296db" p-id="31801"></path><path d="M537.6 588.8v219.136c0 11.264-9.216 20.48-20.48 20.48s-20.48-9.216-20.48-20.48V588.8c0-11.264 9.216-20.48 20.48-20.48s20.48 9.216 20.48 20.48z" fill="#1296db" p-id="31802"></path></svg>