<?xml version="1.0" standalone="no"?><!DOCTYPE svg PUBLIC "-//W3C//DTD SVG 1.1//EN" "http://www.w3.org/Graphics/SVG/1.1/DTD/svg11.dtd"><svg t="1637207278475" class="icon" viewBox="0 0 1024 1024" version="1.1" xmlns="http://www.w3.org/2000/svg" p-id="37964" xmlns:xlink="http://www.w3.org/1999/xlink" width="880" height="880"><defs><style type="text/css"></style></defs><path d="M905.9 156.11H119.29c-29.33 0-53.19 26.13-53.19 58.24v510.46c0 32.1 23.86 58.24 53.19 58.24h69.32c2.94 0 5.91 2.15 8 5.74l62.19 108.75c9.58 16.76 26.13 27 44.25 27.26h0.84c17.71 0 34.12-9.5 44-25.55l68.6-111c2-3.3 4.9-5.26 7.68-5.26H905.9c29.33 0 53.2-26.14 53.2-58.24v-510.4c0-32.11-23.87-58.24-53.2-58.24z m10.45 568.7c0 9.12-5.51 15.49-10.45 15.49H424.17c-17.7 0-34.16 9.54-44 25.55l-68.62 111c-2.12 3.42-4.86 5.47-7.76 5.26s-5.83-2.15-7.87-5.74L233.7 767.58c-9.77-17.08-26.62-27.28-45.09-27.28h-69.32c-4.94 0-10.44-6.37-10.44-15.49V214.35c0-9.13 5.5-15.49 10.44-15.49H905.9c4.94 0 10.45 6.36 10.45 15.49z" p-id="37965" fill="#1296db"></path><path d="M278 405.63a55 55 0 1 0 55 55 55.06 55.06 0 0 0-55-55z m0 67.23a12.24 12.24 0 1 1 12.24-12.23A12.24 12.24 0 0 1 278 472.86zM532.18 405.63a55 55 0 1 0 55 55 55.06 55.06 0 0 0-55-55z m0 67.23a12.24 12.24 0 1 1 12.24-12.23 12.24 12.24 0 0 1-12.24 12.23zM786.38 405.63a55 55 0 1 0 55 55 55.06 55.06 0 0 0-55-55z m0 67.23a12.24 12.24 0 1 1 12.24-12.23 12.25 12.25 0 0 1-12.24 12.23z" p-id="37966" fill="#1296db"></path></svg>