<?xml version="1.0" standalone="no"?><!DOCTYPE svg PUBLIC "-//W3C//DTD SVG 1.1//EN" "http://www.w3.org/Graphics/SVG/1.1/DTD/svg11.dtd"><svg t="1637205944956" class="icon" viewBox="0 0 1024 1024" version="1.1" xmlns="http://www.w3.org/2000/svg" p-id="23434" xmlns:xlink="http://www.w3.org/1999/xlink" width="880" height="880"><defs><style type="text/css"></style></defs><path d="M948.547368 231.747368h-78.147368V175.157895c0-21.557895-16.168421-40.421053-37.726316-40.421053H673.684211c-21.557895 0-37.726316 18.863158-37.726316 40.421053v56.589473h-247.91579V175.157895c0-21.557895-16.168421-40.421053-37.726316-40.421053H191.326316c-21.557895 0-37.726316 18.863158-37.726316 40.421053v56.589473H75.452632c-21.557895 0-40.421053 16.168421-40.421053 37.726316v107.789474c0 21.557895 18.863158 40.421053 40.421053 40.421053h2.694736v431.157894c0 21.557895 18.863158 40.421053 40.421053 40.421053h792.252632c21.557895 0 40.421053-18.863158 40.421052-40.421053v-431.157894h2.694737c21.557895 0 40.421053-18.863158 40.421053-40.421053v-107.789474c-5.389474-21.557895-24.252632-37.726316-45.810527-37.726316zM673.684211 175.157895l158.989473 2.694737v56.589473h-161.68421l2.694737-59.28421z m-482.357895 0H350.315789v56.589473H188.631579l2.694737-56.589473z m719.494737 668.294737c0 2.694737-2.694737 5.389474-2.694737 8.08421l-794.947369-2.694737v-431.157894h794.947369v425.768421zM72.757895 379.957895l2.694737-110.484211h875.789473v102.4c0 2.694737-2.694737 5.389474-2.694737 8.084211H72.757895z" fill="#1296db" p-id="23435"></path><path d="M237.136842 652.126316h64.673684v64.673684c0 10.778947 8.084211 18.863158 18.863158 18.863158s18.863158-8.084211 18.863158-18.863158v-64.673684H404.210526c10.778947 0 18.863158-8.084211 18.863158-18.863158s-8.084211-18.863158-18.863158-18.863158h-64.673684v-64.673684c0-10.778947-8.084211-18.863158-18.863158-18.863158s-18.863158 8.084211-18.863158 18.863158v64.673684H237.136842c-10.778947 0-18.863158 8.084211-18.863158 18.863158s8.084211 18.863158 18.863158 18.863158zM614.4 652.126316h164.378947c10.778947 0 18.863158-8.084211 18.863158-18.863158s-8.084211-18.863158-18.863158-18.863158h-164.378947c-10.778947 0-18.863158 8.084211-18.863158 18.863158s8.084211 18.863158 18.863158 18.863158z" fill="#1296db" p-id="23436"></path></svg>