<?xml version="1.0" standalone="no"?><!DOCTYPE svg PUBLIC "-//W3C//DTD SVG 1.1//EN" "http://www.w3.org/Graphics/SVG/1.1/DTD/svg11.dtd"><svg t="1637205998808" class="icon" viewBox="0 0 1024 1024" version="1.1" xmlns="http://www.w3.org/2000/svg" p-id="26223" xmlns:xlink="http://www.w3.org/1999/xlink" width="880" height="880"><defs><style type="text/css"></style></defs><path d="M927.4 479.7c-7.3 0-14.7-2.5-20.7-7.6L511.6 136.9 116.4 472.1c-13.5 11.4-33.7 9.8-45.1-3.7-11.4-13.5-9.8-33.7 3.7-45.1L490.9 70.5c11.9-10.1 29.5-10.1 41.4 0l415.9 352.8c13.5 11.4 15.1 31.6 3.7 45.1-6.4 7.5-15.4 11.3-24.5 11.3z" p-id="26224" fill="#1296db"></path><path d="M853.9 958.6H169.4c-23.1 0-41.9-18.8-41.9-41.9V408.9c0-17.7 14.3-32 32-32s32 14.3 32 32v485.6h640.3V408.9c0-17.7 14.3-32 32-32s32 14.3 32 32v507.8c-0.1 23.1-18.8 41.9-41.9 41.9z" p-id="26225" fill="#1296db"></path><path d="M703.8 798.8H319.5c-17.7 0-32-14.3-32-32s14.3-32 32-32h384.3c17.7 0 32 14.3 32 32s-14.3 32-32 32z m0-127.8H319.5c-17.7 0-32-14.3-32-32s14.3-32 32-32h384.3c17.7 0 32 14.3 32 32s-14.3 32-32 32z m0-127H319.5c-17.7 0-32-14.3-32-32s14.3-32 32-32h384.3c17.7 0 32 14.3 32 32s-14.3 32-32 32z" p-id="26226" fill="#1296db"></path></svg>