<?xml version="1.0" standalone="no"?><!DOCTYPE svg PUBLIC "-//W3C//DTD SVG 1.1//EN" "http://www.w3.org/Graphics/SVG/1.1/DTD/svg11.dtd"><svg t="1637203251011" class="icon" viewBox="0 0 1024 1024" version="1.1" xmlns="http://www.w3.org/2000/svg" p-id="8696" xmlns:xlink="http://www.w3.org/1999/xlink" width="880" height="880"><defs><style type="text/css"></style></defs><path d="M736.232934 118.192202h-448.922521L62.848129 506.970675 287.309389 895.749148h448.922521l224.46126-388.778473L736.232934 118.192202zM714.634073 858.33945H308.90825l-202.862399-351.368775L308.909274 155.602924h405.725823l202.862399 351.368775L714.634073 858.33945z" fill="#1296db" p-id="8697"></path><path d="M709.363111 314.340986c-52.828387-52.828387-123.066921-81.922089-197.777785-81.922089s-144.949398 29.093702-197.777784 81.922089-81.922089 123.066921-81.922089 197.777785 29.093702 144.949398 81.922089 197.777785 123.066921 81.922089 197.777784 81.922088 144.949398-29.093702 197.777785-81.922088 81.922089-123.066921 81.922089-197.777785-29.093702-144.949398-81.922089-197.777785z m-177.300078-40.089206c56.045435 4.73035 108.110004 28.818276 148.340506 69.048778s64.317404 92.294047 69.047754 148.340506h-71.869582a165.986146 165.986146 0 0 0-14.009823-49.309293c9.49756-10.841922 15.273297-25.022733 15.273297-40.534596 0-33.96842-27.634665-61.603084-61.603084-61.603085-16.463052 0-31.426112 6.50372-42.489193 17.062025a165.891948 165.891948 0 0 0-42.690899-11.142944v-71.861391z m0 258.344697h104.164973c-8.722479 53.27173-50.891196 95.436351-104.164973 104.15883V532.596477z m109.132865-130.545379c0 11.924168-9.666501 21.59067-21.59067 21.59067s-21.59067-9.666501-21.59067-21.59067c0-11.924168 9.666501-21.59067 21.59067-21.59067s21.59067 9.666501 21.59067 21.59067z m-85.038796-8.108148a61.750524 61.750524 0 0 0-0.518086 7.854225c0 33.96842 27.634665 61.603084 61.603085 61.603084 3.574384 0 7.073-0.323548 10.482538-0.910234a125.282608 125.282608 0 0 1 8.495176 29.151039H532.063033V387.482234a125.251892 125.251892 0 0 1 24.094069 6.460716z m-65.049482 97.698114H386.942646c8.722479-53.27173 50.89222-95.435327 104.164974-104.15883v104.15883z m-148.340506-148.340506c40.230502-40.230502 92.294047-64.318428 148.340506-69.048778v71.861391c-75.889356 9.306094-136.221799 69.638536-145.527893 145.527893H273.718336c4.73035-56.045435 28.818276-108.10898 69.048778-148.340506z m148.340506 406.68418c-56.045435-4.73035-108.110004-28.817252-148.340506-69.047755s-64.318428-92.294047-69.048778-148.340506h71.860367c9.306094 75.888333 69.638536 136.221799 145.527893 145.527893v71.860368zM386.942646 532.596477h104.164974v104.15883c-53.272753-8.722479-95.442494-50.887101-104.164974-104.15883z m293.460893 148.340506c-40.230502 40.230502-92.294047 64.317404-148.340506 69.047755v-71.861392c75.889356-9.306094 136.221799-69.638536 145.527893-145.527893h71.860367c-4.73035 56.047483-28.817252 108.111028-69.047754 148.34153z" fill="#1296db" p-id="8698"></path></svg>