<?xml version="1.0" standalone="no"?><!DOCTYPE svg PUBLIC "-//W3C//DTD SVG 1.1//EN" "http://www.w3.org/Graphics/SVG/1.1/DTD/svg11.dtd"><svg t="1637205648126" class="icon" viewBox="0 0 1024 1024" version="1.1" xmlns="http://www.w3.org/2000/svg" p-id="21252" xmlns:xlink="http://www.w3.org/1999/xlink" width="880" height="880"><defs><style type="text/css"></style></defs><path d="M558.848 989.37344c-14.98112 0-27.14112-12.09344-27.14112-27.00288v-43.008c0-87.36256 51.2-165.248 131.26656-200.89344-28.544-25.6-44.8-61.37344-44.8-99.71712 0-74.112 60.61056-134.4 135.168-134.4 74.496 0 135.22944 60.288 135.22944 134.4 0 38.33856-16.32256 74.17856-44.86656 99.71712 80.06656 35.64544 131.26656 113.46944 131.26656 200.89344v43.008c0 14.84288-12.09344 27.00288-27.06944 27.00288H558.848z m361.984-53.94944v-16c0-91.648-75.136-166.27712-167.41888-166.27712-92.22656 0-167.424 74.624-167.424 166.27712v16h334.84288z m-167.552-396.98944c-44.544 0-81.024 36.02944-81.024 80.37888 0 44.288 36.41344 80.45056 81.024 80.45056 44.73344 0 81.09056-36.096 81.09056-80.45056 0-44.34944-36.29056-80.37888-81.09056-80.37888z" fill="#1296db" p-id="21253"></path><path d="M928.256 75.58656H95.80544c-47.93344 0-86.912 38.97344-86.912 86.84544v677.43744c0 47.87712 38.97856 86.72256 86.912 86.72256h368.19456c17.664 0 32-14.26944 32-32 0-17.60256-14.336-32-32-32H95.80544c-12.672 0-22.912-10.112-22.912-22.72256V309.56544h878.336v396.60544a31.9744 31.9744 0 0 0 32 32c17.664 0 32-14.26944 32-32V162.49344c-0.06144-47.93344-39.04-86.90688-86.97344-86.90688zM72.832 251.58656v-89.088c0-12.60544 10.30144-22.84544 22.912-22.84544h211.00544c0 0.256-0.128 0.44544-0.128 0.70656v42.68544a28.02176 28.02176 0 0 0 28.032 28.032c15.488 0 28.032-12.672 28.032-28.16V140.288c0-0.256-0.128-0.44544-0.128-0.70144h302.26944c0 0.256-0.12288 0.44544-0.12288 0.70144v42.68544a28.02176 28.02176 0 0 0 28.032 28.032 28.02688 28.02688 0 0 0 28.03712-28.032V140.288c0-0.256-0.128-0.44544-0.128-0.70144h207.68256c12.61056 0 22.912 10.24 22.912 22.84544v89.15456H72.832z" fill="#1296db" p-id="21254"></path><path d="M584.8064 937.15456c0-74.5472 74.94656-134.97856 167.36768-134.97856 92.43648 0 167.37792 60.43648 167.37792 134.97856M155.29472 693.65248h21.86752v-112.86016h-15.98976v-42.32704h15.98976V452.64384h-18.73408v-41.92768H237.824v41.92768h-18.73408v85.82144h15.59552v42.32704h-15.59552v112.86016h21.86752v42.32192H155.29472v-42.32192z m125.0048-58.1376l0.01536-147.40992 26.55744-32.32768v137.2928l-26.5728 42.4448z m32.28672 83.99872l23.75168-47.03232V399.34976h32.08192v291.94752l-64.63488 49.72032 8.80128-21.504z m96.7424-25.86112h21.86752v-112.86016h-15.59552v-42.32704h15.59552V452.64384H412.4672v-41.92768h79.39584v41.92768h-18.34496v85.82144h15.59552v42.32704h-15.59552v112.86016h21.4784v42.32192H409.32864v-42.32192z" fill="#1296db" p-id="21255"></path><path d="M491.0336 431.77984m-20.95616 0a20.95616 20.95616 0 1 0 41.91232 0 20.95616 20.95616 0 1 0-41.91232 0Z" fill="#1296db" p-id="21256"></path><path d="M413.568 431.75424m-20.98176 0a20.98176 20.98176 0 1 0 41.96352 0 20.98176 20.98176 0 1 0-41.96352 0Z" fill="#1296db" p-id="21257"></path><path d="M352.37376 399.59552m-15.9232 0a15.9232 15.9232 0 1 0 31.8464 0 15.9232 15.9232 0 1 0-31.8464 0Z" fill="#1296db" p-id="21258"></path><path d="M489.47712 559.70304m-21.15584 0a21.15584 21.15584 0 1 0 42.31168 0 21.15584 21.15584 0 1 0-42.31168 0Z" fill="#1296db" p-id="21259"></path><path d="M415.7952 559.70304m-21.15584 0a21.15584 21.15584 0 1 0 42.31168 0 21.15584 21.15584 0 1 0-42.31168 0Z" fill="#1296db" p-id="21260"></path><path d="M495.23712 714.83904m-21.20192 0a21.20192 21.20192 0 1 0 42.40384 0 21.20192 21.20192 0 1 0-42.40384 0Z" fill="#1296db" p-id="21261"></path><path d="M409.47712 714.83904m-21.20192 0a21.20192 21.20192 0 1 0 42.40384 0 21.20192 21.20192 0 1 0-42.40384 0Z" fill="#1296db" p-id="21262"></path><path d="M155.29472 714.83904m-21.17632 0a21.17632 21.17632 0 1 0 42.35264 0 21.17632 21.17632 0 1 0-42.35264 0Z" fill="#1296db" p-id="21263"></path><path d="M239.77472 714.83904m-21.17632 0a21.17632 21.17632 0 1 0 42.35264 0 21.17632 21.17632 0 1 0-42.35264 0Z" fill="#1296db" p-id="21264"></path><path d="M234.22976 559.744m-21.17632 0a21.17632 21.17632 0 1 0 42.35264 0 21.17632 21.17632 0 1 0-42.35264 0Z" fill="#1296db" p-id="21265"></path><path d="M238.28992 431.77472m-20.99712 0a20.99712 20.99712 0 1 0 41.99424 0 20.99712 20.99712 0 1 0-41.99424 0Z" fill="#1296db" p-id="21266"></path><path d="M162.09408 559.744m-21.17632 0a21.17632 21.17632 0 1 0 42.35264 0 21.17632 21.17632 0 1 0-42.35264 0Z" fill="#1296db" p-id="21267"></path><path d="M159.20128 431.77472m-21.08416 0a21.08416 21.08416 0 1 0 42.16832 0 21.08416 21.08416 0 1 0-42.16832 0Z" fill="#1296db" p-id="21268"></path></svg>