<?xml version="1.0" standalone="no"?><!DOCTYPE svg PUBLIC "-//W3C//DTD SVG 1.1//EN" "http://www.w3.org/Graphics/SVG/1.1/DTD/svg11.dtd"><svg t="1637204591623" class="icon" viewBox="0 0 1024 1024" version="1.1" xmlns="http://www.w3.org/2000/svg" p-id="16589" xmlns:xlink="http://www.w3.org/1999/xlink" width="880" height="880"><defs><style type="text/css"></style></defs><path d="M595.362909 962.606545a34.909091 34.909091 0 0 1-34.909091-34.90909v-264.517819a101.282909 101.282909 0 0 0-101.143273-101.143272H217.506909A101.282909 101.282909 0 0 0 116.363636 663.179636v264.517819a34.909091 34.909091 0 0 1-69.818181 0v-264.517819a171.147636 171.147636 0 0 1 170.961454-170.961454h241.803636a171.147636 171.147636 0 0 1 170.961455 170.961454v264.517819a34.909091 34.909091 0 0 1-34.909091 34.90909zM520.704 243.712a182.458182 182.458182 0 0 0-182.225455-182.318545 182.504727 182.504727 0 0 0-182.272 182.318545 182.458182 182.458182 0 0 0 182.272 182.272 182.458182 182.458182 0 0 0 182.225455-182.272z m-69.818182 0a112.546909 112.546909 0 0 1-112.407273 112.453818 112.593455 112.593455 0 0 1-112.453818-112.453818 112.64 112.64 0 0 1 112.453818-112.500364 112.64 112.64 0 0 1 112.407273 112.500364z m477.928727 159.930182c7.540364 0 13.730909 6.190545 13.73091 13.730909v27.601454a13.777455 13.777455 0 0 1-13.73091 13.73091H912.290909a20.014545 20.014545 0 0 0-17.826909 13.125818l-9.541818 23.04a20.014545 20.014545 0 0 0 3.258182 21.876363l11.729454 11.682909a13.870545 13.870545 0 0 1 0 19.502546l-19.456 19.502545a13.917091 13.917091 0 0 1-19.549091 0l-11.636363-11.729454a19.642182 19.642182 0 0 0-21.829819-3.211637l-23.086545 9.495273a20.154182 20.154182 0 0 0-13.172364 17.873455v16.477091a13.777455 13.777455 0 0 1-13.730909 13.777454h-27.554909a13.730909 13.730909 0 0 1-13.730909-13.777454v-16.477091a20.014545 20.014545 0 0 0-13.172364-17.873455l-23.086545-9.495273a19.549091 19.549091 0 0 0-21.829818 3.211637l-11.729455 11.729454a13.777455 13.777455 0 0 1-19.456 0l-19.456-19.502545a13.870545 13.870545 0 0 1 0-19.502546l11.729455-11.682909a19.642182 19.642182 0 0 0 3.165091-21.876363l-9.448728-23.04a20.014545 20.014545 0 0 0-17.826909-13.125818h-16.523636a13.777455 13.777455 0 0 1-13.730909-13.777455v-27.554909c0-7.586909 6.190545-13.730909 13.730909-13.730909h16.523636a20.014545 20.014545 0 0 0 17.826909-13.125818l9.448728-23.086546a19.549091 19.549091 0 0 0-3.165091-21.829818l-11.729455-11.729455a13.870545 13.870545 0 0 1 0-19.502545l19.456-19.409455a13.777455 13.777455 0 0 1 19.456 0l11.822546 11.68291a19.502545 19.502545 0 0 0 21.736727 3.211636l23.086545-9.495273a19.874909 19.874909 0 0 0 13.172364-17.873454v-16.430546c0-7.586909 6.190545-13.777455 13.730909-13.777454h27.554909c7.540364 0 13.730909 6.190545 13.730909 13.777454v16.477091a20.014545 20.014545 0 0 0 13.172364 17.873455l22.993455 9.495272a19.874909 19.874909 0 0 0 21.922909-3.211636l11.636363-11.682909a13.917091 13.917091 0 0 1 19.549091 0l19.456 19.409454a13.870545 13.870545 0 0 1 0 19.502546l-11.729454 11.682909a19.921455 19.921455 0 0 0-3.258182 21.829818l9.541818 23.04a20.014545 20.014545 0 0 0 17.826909 13.125818h16.523636m-96.256 27.554909a68.840727 68.840727 0 1 0-137.634909 0.046546 68.840727 68.840727 0 0 0 137.634909-0.046546" p-id="16590" fill="#1296db"></path></svg>