<?xml version="1.0" standalone="no"?><!DOCTYPE svg PUBLIC "-//W3C//DTD SVG 1.1//EN" "http://www.w3.org/Graphics/SVG/1.1/DTD/svg11.dtd"><svg t="1637204544153" class="icon" viewBox="0 0 1024 1024" version="1.1" xmlns="http://www.w3.org/2000/svg" p-id="14840" xmlns:xlink="http://www.w3.org/1999/xlink" width="880" height="880"><defs><style type="text/css"></style></defs><path d="M743.5 598.6c-40.4 0-73.2 32.8-73.2 73.3s32.8 73.3 73.2 73.3c40.4 0 73.2-32.8 73.2-73.3-0.1-40.5-32.8-73.3-73.2-73.3z m0 104.1c-17 0-30.8-13.8-30.8-30.8s13.8-30.8 30.8-30.8 30.8 13.8 30.8 30.8-13.8 30.8-30.8 30.8z" p-id="14841" fill="#1296db"></path><path d="M651.6 513.8l-91.2 158.1L651.6 830h182.3L925 672v-0.3l-91.1-158H651.6z m157.9 273.8H676.1l-66.7-115.7 66.7-115.7h133.4l66.7 115.7-66.7 115.7z" p-id="14842" fill="#1296db"></path><path d="M473.7 647.9c-20.6 0-37.1 16.5-37.1 37.1s16.5 37.1 37.1 37.1 37.1-16.5 37.1-37.1c-0.1-20.6-16.6-37.1-37.1-37.1z" p-id="14843" fill="#1296db"></path><path d="M732.7 491.1L576.9 227.3c-24.7-41.2-65.9-65.9-111.2-65.9s-86.5 24.7-111.2 65.9L119.8 630.9c-12.4 20.6-18.5 43.2-18.5 65.4 0 22.1 6.2 43.8 18.5 62.3 24.7 41.2 65.9 61.8 111.2 61.8h384.9l3.6 0.3-31-53.8H226.8c-24.7 0-49.4-12.4-61.8-32.9-12.4-20.6-12.4-49.4 0-70l234.7-403.6c12.4-20.6 37.1-37.1 61.8-37.1 24.7 0 49.4 12.4 61.8 37.1l131.9 230.8h77.5z" p-id="14844" fill="#1296db"></path><path d="M465.4 388.5c-16.5 4.1-28.8 20.6-28.8 41.2 0 12.4 0 24.7 4.1 37.1 4.1 45.3 4.1 86.5 8.2 131.8 0 16.5 12.4 24.7 28.8 24.7 16.5 0 28.8-12.4 28.8-28.8v-28.8c0-28.8 4.1-57.7 4.1-86.5 0-20.6 4.1-37.1 4.1-57.7 0-8.2 0-12.4-4.1-20.6-8.1-8.3-28.7-16.5-45.2-12.4z" p-id="14845" fill="#1296db"></path></svg>