<?xml version="1.0" standalone="no"?><!DOCTYPE svg PUBLIC "-//W3C//DTD SVG 1.1//EN" "http://www.w3.org/Graphics/SVG/1.1/DTD/svg11.dtd"><svg t="1637204476254" class="icon" viewBox="0 0 1024 1024" version="1.1" xmlns="http://www.w3.org/2000/svg" p-id="14076" xmlns:xlink="http://www.w3.org/1999/xlink" width="880" height="880"><defs><style type="text/css"></style></defs><path d="M514.694737 385.347368c48.505263 0 88.926316-40.421053 88.926316-88.926315s-40.421053-88.926316-88.926316-88.926316-88.926316 40.421053-88.926316 88.926316 40.421053 88.926316 88.926316 88.926315z m0-142.821052c29.642105 0 51.2 24.252632 51.2 53.894737s-24.252632 51.2-51.2 51.2c-29.642105 0-51.2-24.252632-51.2-51.2s24.252632-53.894737 51.2-53.894737z" fill="#1296db" p-id="14077"></path><path d="M353.010526 374.568421l110.484211 253.305263s0 2.694737 2.694737 2.694737c10.778947 16.168421 26.947368 26.947368 43.115789 26.947368 18.863158 0 35.031579-10.778947 45.810526-32.336842l115.873685-242.526315c16.168421-26.947368 24.252632-59.284211 24.252631-88.926316a180.547368 180.547368 0 0 0-361.094737 0c0 29.642105 5.389474 56.589474 18.863158 80.842105z m161.684211-220.968421c78.147368 0 142.821053 64.673684 142.821052 142.821053 0 26.947368-8.084211 51.2-18.863157 72.757894l-115.873685 242.526316c-2.694737 5.389474-8.084211 10.778947-10.778947 10.778948-2.694737 0-8.084211-2.694737-13.473684-10.778948l-107.789474-250.610526c-10.778947-18.863158-16.168421-40.421053-16.168421-64.673684-2.694737-80.842105 61.978947-142.821053 140.126316-142.821053z" fill="#1296db" p-id="14078"></path><path d="M988.968421 865.010526V862.315789v-2.694736-2.694737l-134.736842-288.336842s0-2.694737-2.694737-2.694737l-2.694737-2.694737-2.694737-2.694737s-2.694737 0-2.694736-2.694737l-145.51579-61.978947c-10.778947-5.389474-21.557895 0-24.252631 10.778947-5.389474 10.778947 0 21.557895 10.778947 24.252632l140.126316 59.28421 110.48421 237.136843-175.157895-75.452632-59.28421-156.294737c-2.694737-10.778947-13.473684-13.473684-24.252632-10.778947-10.778947 2.694737-13.473684 13.473684-10.778947 24.252631l56.589474 148.210527-188.631579 102.4v-134.736842c0-10.778947-8.084211-18.863158-18.863158-18.863158s-18.863158 8.084211-18.863158 18.863158v134.736842l-188.631579-102.4 56.589474-148.210527c2.694737-10.778947 0-21.557895-10.778948-24.252631-10.778947-2.694737-21.557895 0-24.252631 10.778947L269.473684 751.831579l-175.157895 75.452632 110.484211-237.136843 140.126316-59.28421c10.778947-5.389474 13.473684-16.168421 10.778947-24.252632-5.389474-10.778947-16.168421-13.473684-24.252631-10.778947l-145.51579 61.978947s-2.694737 0-2.694737 2.694737c0 0-2.694737 0-2.694737 2.694737l-2.694736 2.694737-2.694737 2.694737-134.736842 288.336842v13.473684c0 2.694737 2.694737 2.694737 2.694736 5.389474 2.694737 2.694737 2.694737 2.694737 5.389474 2.694737s5.389474 2.694737 8.084211 2.694736c2.694737 0 5.389474 0 8.08421-2.694736l218.273684-94.31579 223.663158 118.568421c2.694737 0 5.389474 2.694737 8.084211 2.694737H522.778947l223.663158-118.568421 218.273684 94.315789c2.694737 0 5.389474 2.694737 8.084211 2.694737 2.694737 0 5.389474 0 8.084211-2.694737 2.694737 0 2.694737-2.694737 5.389473-2.694736 0-2.694737 2.694737-2.694737 2.694737-5.389474v-8.084211z" fill="#1296db" p-id="14079"></path></svg>