<?xml version="1.0" standalone="no"?><!DOCTYPE svg PUBLIC "-//W3C//DTD SVG 1.1//EN" "http://www.w3.org/Graphics/SVG/1.1/DTD/svg11.dtd"><svg t="1637203275178" class="icon" viewBox="0 0 1024 1024" version="1.1" xmlns="http://www.w3.org/2000/svg" p-id="9591" xmlns:xlink="http://www.w3.org/1999/xlink" width="880" height="880"><defs><style type="text/css"></style></defs><path d="M966.283315 0H57.667418A57.667381 57.667381 0 0 0 0.000037 57.729058v908.615896a57.667381 57.667381 0 0 0 57.667381 57.655046h908.615897a57.667381 57.667381 0 0 0 57.667381-57.655046V57.729058A57.667381 57.667381 0 0 0 966.283315 0zM216.644362 752.932469q78.513986-53.769436 156.435878-128.027754l39.250826 30.838172q-77.268123 69.410557-162.45549 134.022695-14.481606-17.503746-33.231214-36.833113z m333.952731-25.96574q0 68.8308-72.469704 68.843134-29.604645 0-77.897222-1.233526-3.009806-22.351507-7.857566-49.526105 50.73496 5.439854 77.909557 5.439854 33.206543 0 33.218879-32.614451V593.499121q-73.382514 3.922615-149.170405 8.461994a551.818248 551.818248 0 0 0-68.238707 7.845231l-19.933794-51.931482a317.275448 317.275448 0 0 0 75.491845-23.560363q92.403498-45.295107 171.460235-91.182306-105.071819 8.141277-176.394343 14.49394-31.393259 3.009806-47.712819 6.636375l-19.193679-50.722625a227.684391 227.684391 0 0 0 54.349194-21.142651 1300.976125 1300.976125 0 0 0 151.884165-99.915677q-103.616257 6.327993-209.859928 11.101742a409.962657 409.962657 0 0 0-10.867371-42.272966q288.053196-10.818031 511.481918-33.181873l9.066423 42.88973q-131.049895 10.855036-266.022406 19.625412l24.448503 17.2077q-94.808876 63.415617-175.160817 106.897439 135.256222-7.549184 224.045487-14.493941 60.442817-38.646397 111.720529-77.909557l39.26316 32.071699q-151.600453 108.09396-352.085576 202.298407 120.2442-4.342015 291.445395-12.729997-30.196738-27.79136-60.689522-54.36153l32.071699-30.838171q77.280459 62.219096 158.224492 136.489748-19.921459 19.341701-36.845448 36.833113-25.114607-24.719879-50.784301-48.897006-80.610981 3.330523-164.873203 7.845231z m221.035681 57.975763Q687.074506 714.8905 609.177284 656.914737l30.838172-32.61445q76.096273 50.73496 167.27858 121.379044z" p-id="9592" fill="#1296db"></path></svg>