<?xml version="1.0" standalone="no"?><!DOCTYPE svg PUBLIC "-//W3C//DTD SVG 1.1//EN" "http://www.w3.org/Graphics/SVG/1.1/DTD/svg11.dtd"><svg t="1637203980065" class="icon" viewBox="0 0 1024 1024" version="1.1" xmlns="http://www.w3.org/2000/svg" p-id="12505" xmlns:xlink="http://www.w3.org/1999/xlink" width="880" height="880"><defs><style type="text/css"></style></defs><path d="M526.814642 1022.210312l-69.400136-0.298282c-4.175939 0-7.25818 0-9.545004-2.585105-2.08797-2.386251-2.08797-5.170211-2.08797-9.743859l0.198854-41.461112 0.298282-71.289252c0-0.69599 0-2.386251-0.099427-3.380522-0.795417-0.298281-2.286824-0.497136-2.883387-0.596563-12.925527-2.386251-25.851054-5.369065-38.478299-9.047869-56.772891-16.703758-108.276143-47.128459-152.819497-90.180406-1.093698-1.193126-2.286824-2.187397-3.579377-3.281095-1.39198 0.69599-2.684532 1.491407-3.977085 2.386251-20.183707 12.726672-40.765123 25.552772-60.650548 37.981164-18.294592 11.43412-37.285173 23.166521-55.878047 34.898922-0.994271 0.69599-4.175939 2.585105-7.755316 1.690261-3.281095-0.894844-4.971356-3.678804-5.965628-5.667346-6.065055-11.931255-12.428391-23.961938-18.592873-35.594913-3.082241-5.965628-6.263909-11.831828-9.34615-17.797456-15.311778-29.032722-30.623556-57.966016-42.057675-79.839984-0.298281-0.497136-0.497136-0.994271-0.69599-1.491407-0.198854-0.397709-0.298281-0.69599-0.497136-1.093698 0.298281 0.397709 0.795417 0.596563 1.193126 0.596562l0.497135-9.843285c5.170211 0.298281 7.059326 4.573648 7.854744 6.363336 0.099427 0.298281 0.298281 0.596563 0.397708 0.795417 11.533547 21.873968 26.745898 50.807263 41.958248 79.839984 3.082241 5.965628 6.263909 11.831828 9.346151 17.797456 6.164482 11.632974 12.527818 23.763084 18.6923 35.69434 18.493446-11.632974 37.3846-23.365375 55.579765-34.700068 19.885426-12.428391 40.466841-25.254491 60.650548-37.881736 9.147296-5.766773 11.831828-5.468492 19.686572 2.187396 43.449655 41.958248 93.461501 71.587533 148.842412 87.794155 12.328964 3.579377 24.856782 6.562191 37.484027 8.849015 8.849014 1.690261 11.036411 4.374794 10.936985 13.720943l-0.298282 71.289252-0.198854 41.461113v2.386251h1.789688l138.899699 0.497135h1.789689v-2.485678l0.497135-121.102243c0-10.936984 1.491407-12.925527 11.43412-16.107195C656.169337 858.553258 698.923002 834.889601 735.71104 803.371201c6.164482-5.269638 9.942713-5.269638 15.908341 0.099427 12.13011 10.837557 24.359647 21.675114 36.489756 32.512671 18.6923 16.604331 37.981163 33.805224 56.872318 50.707836l1.193125 0.994271 1.093698-1.391979c11.533547-15.311778 22.967667-30.623556 34.501214-45.835907 17.598602-23.166521 35.694339-47.227886 53.591223-70.891543 0.69599-0.894844 1.39198-1.889115 1.889115-2.585105-0.596563-0.596563-1.39198-1.292553-2.187397-1.988543l-0.198854-0.099427c-12.428391-11.036411-24.856782-22.072823-37.285173-33.208661-18.095737-16.107195-36.688611-32.810953-55.182057-49.017574-0.497136-0.397709-0.894844-0.894844-1.39198-1.292553l-1.093698-1.093698c-2.78396-2.187397-7.059326-7.158753-3.47995-15.311778 7.556462-17.698029 13.621517-35.992621 18.195165-54.684921 5.567919-22.569958 9.147296-45.637052 10.539276-68.903 0.69599-11.931255 0.994271-21.675114 0.795417-30.524129-0.596563-31.816681-5.170211-63.533935-13.52209-94.256918l-0.099427-0.397709c-0.397709-1.39198-0.69599-2.684532-1.193126-3.877658-2.286824-6.164482-0.497136-11.43412 5.170211-14.914069 8.550733-5.269638 17.30032-10.73813 25.652199-16.007768l8.451306-5.269638c8.053597-4.971356 16.107195-10.04214 24.061366-15.013496 13.820371-8.65016 28.137877-17.499175 42.157102-26.348189l1.292553-0.795417c-0.298281-0.596563-0.69599-1.292553-0.894844-1.789689-9.843286-18.493446-19.686572-37.285173-29.231576-55.480337-4.871929-9.246723-9.743859-18.592873-14.615788-27.839596-4.971356-9.34615-9.942713-18.791727-14.814642-28.237305l-11.135839-21.277406-0.596563-1.093698-0.795417 0.497136c-11.334693 7.059326-22.768813 14.218079-34.103505 21.277405-21.973395 13.720944-44.742208 27.839596-67.113312 41.858821-0.397709 0.298281-0.894844 0.497136-1.39198 0.795417-0.298281 0.198854-0.69599 0.397709-0.994271 0.596563-2.982814 2.286824-8.849014 5.070784-15.311778-1.690261-12.627245-13.223808-26.049908-25.552772-40.16856-36.986892-34.501214-27.640742-73.77493-48.619866-115.932032-61.744247-8.65016-2.684532-10.240994-4.871929-10.141567-14.615788 0.198854-42.95252 0.298281-86.004466 0.497136-128.956986v-0.994271c-0.099427-2.286824-0.198854-5.667346 2.386251-8.650161l7.556461 6.26391c-0.099427 0.69599-0.198854 1.491407-0.099427 2.187396v1.292553c-0.198854 42.95252-0.397709 86.004466-0.497135 128.956986 0 1.292553 0 3.181668 0.099427 4.076513 0.795417 0.298281 2.187397 0.795417 3.181668 1.093698 43.350228 13.621517 83.717642 35.097776 119.1137 63.533935 14.516361 11.732401 28.237305 24.459074 41.063405 37.981163 0.397709 0.497136 0.894844 0.894844 1.491406 1.193126 0.298281-0.099427 0.596563-0.298281 0.795417-0.497136 0.69599-0.497136 1.491407-0.994271 2.286824-1.491407 0.298281-0.099427 0.596563-0.298281 0.795417-0.497135 22.371104-14.019225 45.139916-28.237305 67.113312-41.958249 11.43412-7.059326 22.768813-14.218079 34.103506-21.277405 2.78396-1.690261 5.567919-3.47995 8.849014-2.585105s4.871929 3.877658 6.462763 6.959899l11.135839 21.277405c4.971356 9.445577 9.843286 18.791727 14.814642 28.237305 4.871929 9.246723 9.743859 18.592873 14.615788 27.839596 9.545004 18.195165 19.38829 36.986892 29.231576 55.380911 3.977085 7.457035 3.977085 10.638703-3.778231 15.510632-14.019225 8.749587-28.436159 17.598602-42.25653 26.248762-8.053597 4.971356-16.007768 9.942713-24.061365 15.013496l-8.451306 5.269638c-8.451306 5.269638-17.200893 10.73813-25.751626 16.007768-1.590834 0.994271-1.690261 1.292553-0.994272 2.982814 0.596563 1.590834 0.994271 3.181668 1.39198 4.673075l0.099427 0.397708c8.65016 31.5184 13.323235 63.931644 13.919798 96.643169 0.198854 9.246723-0.099427 19.189436-0.795417 31.319546-1.39198 23.862511-5.070784 47.526168-10.837557 70.692689-4.673075 19.288863-10.936984 38.08059-18.6923 56.275754-0.994271 2.386251-0.497136 2.78396 0.497136 3.579377 0.69599 0.596563 1.39198 1.193126 2.08797 1.889116l0.894844 0.894844c18.394019 16.306049 37.086319 33.009807 55.182056 49.117001 12.428391 11.036411 24.757355 22.072823 37.185746 33.109234l0.198855 0.099427c7.556462 6.761045 7.755316 9.545004 1.491407 17.797456-17.896883 23.663657-35.992621 47.725022-53.491796 71.090398-11.533547 15.311778-22.967667 30.623556-34.501213 45.935333-2.585105 3.47995-4.474221 5.965628-7.854744 6.363336s-5.667346-1.690261-8.749587-4.573648c-18.891154-16.902612-38.180017-34.103505-56.872318-50.707835-12.229537-10.837557-24.459074-21.675114-36.589183-32.512671-0.596563-0.596563-1.093698-0.994271-1.39198-1.193126-0.298281 0.298281-0.795417 0.69599-1.590834 1.292553-37.782309 32.313817-81.7291 56.574036-129.15584 71.488105-1.491407 0.397709-2.982814 0.894844-4.374794 1.491407-0.198854 1.690261-0.198854 3.47995-0.198854 5.170211l-0.497136 121.102243c0 4.673075 0 7.457035-2.187397 9.743859-2.286824 2.485678-5.369065 2.485678-9.545004 2.485678l-69.201282-0.099427zM775.481891 256.124284z" fill="#1296db" p-id="12506"></path><path d="M45.289057 723.531217c-0.894844 0-1.690261-0.198854-2.485678-0.397709l3.181668-9.34615c-0.397709-0.198854-0.894844-0.198854-1.39198 0 0.099427-0.099427 0.497136-0.298281 0.69599-0.497136s0.795417-0.497136 1.093699-0.69599c6.065055-3.579377 12.13011-7.357608 17.99631-11.036411l5.866201-3.678804c10.240994-6.363336 20.581416-12.8261 30.822409-19.189435 17.797456-11.135838 36.191475-22.569958 54.287213-33.904651 0.596563-0.397709 1.590834-0.994271 2.187397-1.491407-0.198854-0.795417-0.596563-2.08797-0.894845-3.082241-4.573648-14.118652-8.351879-28.436159-11.434119-42.95252-4.871929-23.862511-7.556462-48.12273-8.053598-72.482377-0.397709-20.78027 0.894844-41.461113 3.877658-62.042528 5.667346-39.870279 17.399748-78.646859 34.99835-114.937761 0.795417-1.491407 1.39198-2.982814 1.889115-4.573648-0.894844-1.193126-1.889115-2.187397-3.082241-3.082241-14.615788-12.925527-29.331003-26.049908-43.648509-38.77658-12.13011-10.73813-24.558501-21.873968-36.887465-32.810953-6.661618-5.866201-6.860472-8.849014-1.590834-15.808913 19.487717-25.751626 39.174289-52.000388 58.264297-77.354307 9.942713-13.223808 19.785999-26.348189 29.728712-39.571997 3.281095-4.374794 5.269638-7.059326 8.948441-7.357608s6.065055 1.789688 10.04214 5.468493l0.099427 0.099427c17.200893 15.411205 34.700068 31.021264 51.60268 46.03476 11.135838 9.843286 22.271677 19.785999 33.308088 29.629285 0.69599 0.69599 1.690261 1.491407 2.286824 1.988542 0.69599-0.497136 1.690261-1.193126 2.386252-1.690261 19.38829-14.416934 40.16856-27.044179 62.042528-37.484027 29.529857-14.019225 60.849403-24.061365 92.964365-29.728712 1.193126-0.198854 1.988543-0.397709 2.485679-0.497136 0.099427-1.093698 0.198854-2.187397 0.099427-3.181668 0.198854-40.16856 0.298281-80.436547 0.497135-120.605107v-1.093698c0-0.596563 0-1.292553-0.099427-1.889116l7.954171-6.56219c2.485678 2.982814 2.386251 6.263909 2.286824 8.451306v0.795417c-0.099427 40.16856-0.298281 80.436547-0.497136 120.605107 0 9.047869-2.386251 11.931255-10.837557 13.422662-31.319546 5.567919-61.744247 15.311778-90.478687 28.933295-21.277406 10.240994-41.461113 22.470531-60.451695 36.589183-7.457035 5.468492-10.141567 5.369065-17.101466-0.894844-11.036411-9.942713-22.17225-19.785999-33.308088-29.629284-17.002039-15.112924-34.501214-30.623556-51.702107-46.134188l-0.099427-0.099427c-0.795417-0.795417-1.690261-1.590834-2.386251-2.187397-0.596563 0.795417-1.39198 1.690261-1.988543 2.585105-9.942713 13.223808-19.885426 26.447616-29.728711 39.671425-19.090009 25.353918-38.77658 51.60268-58.264298 77.354306l-0.994271 1.39198 1.292552 1.193125c12.328964 10.936984 24.856782 22.072823 36.887465 32.810953 14.317507 12.726672 29.032722 25.851054 43.64851 38.77658 7.755316 6.860472 7.755316 10.73813 3.579376 19.38829-17.101466 35.396058-28.635013 73.178367-34.103505 112.054374-2.982814 19.984853-4.175939 40.267987-3.778231 60.451695 0.497136 23.763084 3.181668 47.42674 7.854744 70.792115 2.982814 14.218079 6.761045 28.237305 11.235265 42.057676 2.585105 8.153025 2.187397 11.036411-5.468492 15.808913-18.095737 11.334693-36.489756 22.768813-54.386639 33.904651-10.240994 6.363336-20.581416 12.8261-30.82241 19.189436l-5.866201 3.678804c-5.965628 3.778231-12.13011 7.556462-18.294592 11.235266-0.198854 0.099427-0.397709 0.298281-0.596562 0.397708-1.690261 1.193126-3.678804 1.889115-5.667347 1.988543z" fill="#1296db" p-id="12507"></path><path d="M453.437421 1023.30401c-2.187397 0-4.871929-0.298281-6.860472-2.386251s-2.386251-4.971356-2.386251-7.357608c0.099427-17.698029 0.198854-35.793766 0.298282-53.292941 0.099427-21.277406 0.198854-43.250801 0.397708-64.826488v-0.994271l-0.69599-0.099427c-64.727061-11.334693-123.587921-39.273716-174.89232-83.12108-6.761045-5.766773-13.422662-12.030683-20.481988-19.189436l-0.198854-0.198854-0.596563 0.298282c-19.288863 12.030683-38.876007 24.260219-57.866589 36.092047-20.581416 12.8261-41.858821 26.149335-62.738518 39.174289-1.590834 0.994271-4.374794 2.78396-7.755316 1.889116-3.082241-0.795417-4.772502-3.380522-5.866201-5.56792C93.809496 825.245169 73.327508 786.468589 53.640936 748.885134l-10.936984-20.780269c-0.497136-0.894844-0.994271-1.789688-1.590834-2.684533l-0.894844-1.491407-0.69599-1.193125v-7.059327l26.248762-16.306049c29.43043-18.294592 59.755704-37.285173 89.782697-55.878046 0.298281-0.198854 0.69599-0.397709 0.994271-0.69599-0.099427-0.497136-0.198854-0.894844-0.397708-1.39198-16.007768-50.608409-22.470531-101.11739-19.189436-150.134964 3.281095-49.117002 16.504903-98.134576 39.174289-145.46189 0.397709-0.69599 0.69599-1.590834 0.894844-2.386251 0 0-0.099427-0.397709-1.491407-1.590834-15.311778-13.422662-30.722983-27.143606-45.637052-40.466841-12.428391-11.135838-25.353918-22.569958-38.080591-33.805224-4.871929-4.275367-5.269638-8.451306-1.292552-13.720944 28.535586-37.682882 58.86086-78.050296 92.765511-123.389067 0.994271-1.292553 2.982814-4.076512 6.363336-4.374794 2.982814-0.298281 5.269638 1.39198 6.959899 2.883387 16.703758 15.013496 33.705797 30.12642 50.111273 44.742208 13.52209 12.13011 27.143606 24.260219 40.665696 36.390329l0.099427 0.099427c47.625595-36.191475 101.216817-59.357996 159.182833-69.201281 0-31.617827 0.099427-63.832217 0.298282-94.952908 0-10.638703 0.099427-21.277406 0.099427-31.916109 0-0.099427 0-0.298281-0.099427-0.397708s-0.099427-0.596563-0.099427-0.795417l-0.894845-5.766774 166.341587 0.69599-0.099427 33.904651c-0.099427 35.495485-0.298281 72.283523-0.497136 108.375571 0 0.497136 0 0.994271 0.099427 1.391979 0.298281 0.099427 0.69599 0.298281 0.994272 0.397709 61.943101 19.090009 116.528595 53.591222 162.06622 102.608797l0.298281 0.298281 0.198854-0.099427c18.6923-11.732401 37.782309-23.663657 56.275755-35.197204 16.504903-10.240994 33.506942-20.879697 50.2107-31.418972 1.590834-0.994271 4.573648-2.883387 7.954171-1.889116 3.082241 0.894844 4.871929 3.47995 5.965627 5.667347 21.277406 40.765123 44.245072 84.711914 72.482377 138.104282 2.982814 5.567919 1.889115 9.843286-3.281095 13.024954-16.902612 10.439849-34.004078 21.078551-50.608409 31.418972-17.101466 10.638703-34.700068 21.575687-52.099815 32.313817-0.298281 0.198854-0.69599 0.397709-0.994271 0.69599 0.099427 0.397709 0.198854 0.894844 0.298281 1.292553 24.757355 88.490145 19.686572 176.184872-14.914069 260.598504-0.198854 0.497136-0.397709 1.093698-0.596563 1.690262 0.198854 0.298281 0.497136 0.596563 0.795417 0.795417 18.6923 16.504903 37.583455 33.308088 55.878046 49.614137 14.019225 12.527818 28.535586 25.453345 42.853093 38.08059 3.082241 2.78396 6.065055 6.661618 1.292553 12.925527-31.5184 41.659967-62.738518 83.220507-92.765512 123.389067-1.590834 2.08797-3.678804 4.374794-6.761044 4.673075s-5.567919-1.491407-7.556462-3.181668c-17.99631-16.206622-36.390329-32.512671-54.088358-48.321585-14.019225-12.527818-28.03845-25.155064-42.057676-37.682882-38.77658 33.506942-84.214778 58.562579-133.232352 73.277794l-0.497136 0.198855v1.093698c0 19.487717-0.099427 38.876007-0.198854 58.363725-0.099427 22.967667-0.198854 46.730751-0.198855 70.096126 0 2.485678-0.298281 5.269638-2.386251 7.357607s-4.871929 2.286824-6.959899 2.286824c-48.719293-0.298281-98.035149-0.497136-146.555588-0.596563l-0.198854-0.099427z m-204.720458-241.607923c2.08797 0 4.474221 0.894844 6.959899 3.380522 6.860472 6.959899 13.422662 13.024954 19.885426 18.592873 49.912419 42.753665 107.182445 69.897272 170.119817 80.933683 6.164482 1.093698 8.948442 4.474221 8.849015 10.936985-0.198854 21.575687-0.298281 43.549082-0.397709 64.826488-0.099427 17.399748-0.099427 35.396058-0.298281 53.094086 48.222157 0.099427 97.140305 0.298281 145.561316 0.596563 0-23.365375 0.099427-47.029032 0.198855-69.897271 0.099427-19.487717 0.099427-38.876007 0.198854-58.363725 0-3.877658 0.894844-8.65016 7.655889-10.638703 48.023303-14.416934 92.367803-38.876007 130.249538-71.68696 4.076512-3.47995 8.153025-3.47995 12.030683 0.099427 14.218079 12.726672 28.436159 25.353918 42.654238 38.080591 17.698029 15.808913 36.092048 32.114963 54.088358 48.321584 30.026993-40.16856 61.147684-81.629673 92.566657-123.190212-14.317507-12.627245-28.73444-25.552772-42.753665-37.981164-18.294592-16.306049-37.185746-33.109234-55.778619-49.51471-5.468492-4.772502-4.573648-9.34615-2.78396-13.621516 33.805224-82.42509 38.677153-167.932421 14.615788-254.235169-1.690261-5.965628-0.198854-9.843286 4.971356-13.024954 17.399748-10.73813 34.998349-21.675114 52.099816-32.313817 16.504903-10.340421 33.60637-20.979124 50.508981-31.319545l-0.099427-0.099427c-28.237305-53.392368-51.204971-97.339159-72.482377-138.104282-16.703758 10.539276-33.805224 21.078551-50.2107 31.418972-18.394019 11.533547-37.484028 23.365375-56.176327 35.197204-4.871929 3.082241-8.948442 2.485678-13.024954-1.789688-44.344499-47.725022-97.538013-81.331391-157.989708-99.924265-5.667346-1.789688-8.053597-5.070784-8.053598-11.334692 0.298281-36.092048 0.397709-72.880085 0.497136-108.375571l0.099427-24.061365-145.461889-0.596563c0 9.644431-0.099427 19.38829-0.099427 29.032722-0.099427 31.319546-0.298281 63.633362-0.298282 95.450043 0 7.755316-5.866201 8.749587-8.053597 9.147296-56.673463 9.545004-108.872706 32.21439-155.305175 67.511021-6.164482 4.673075-10.638703 0.69599-12.328964-0.795417-13.52209-12.13011-27.143606-24.260219-40.665696-36.290902-16.206622-14.516361-33.009807-29.43043-49.51471-44.145645-33.805224 45.139916-64.031071 85.308477-92.367803 122.891931l-0.198854 0.298281 0.099427 0.099427c12.726672 11.235266 25.652199 22.768813 38.08059 33.805224 14.914069 13.323235 30.325274 27.044179 45.637052 40.466842 5.269638 4.573648 6.164482 9.147296 3.082241 15.709486-44.245072 92.367803-50.807263 189.40868-19.487717 288.338674 1.889115 6.065055 0.497136 10.141567-4.871929 13.422662-29.927566 18.493446-60.352267 37.484028-89.68327 55.778619L49.862705 720.846684c0.497136 0.795417 1.093698 1.690261 1.590834 2.684533l10.936984 20.78027c19.686572 37.484028 40.16856 76.360035 60.053986 114.639479 20.879697-13.024954 42.057676-26.248762 62.539664-39.074862 18.990582-11.831828 38.577726-24.061365 57.767162-36.092047 1.789688-1.292553 3.877658-1.988543 5.965628-2.08797zM742.670939 810.430527zM611.427129 151.427517z" fill="#1296db" p-id="12508"></path><path d="M505.636664 789.55083h-1.093699c-73.178367-0.298281-141.783086-29.032722-193.385765-80.933683-51.503253-51.900961-79.740557-120.803962-79.442276-193.982328 0.298281-73.178367 29.032722-141.783086 80.933683-193.385766 51.702107-51.304398 120.107972-79.442276 192.88863-79.442276h1.093698c73.178367 0.298281 141.783086 29.032722 193.385766 80.933683 51.503253 51.900961 79.740557 120.803962 79.442276 193.982329-0.298281 73.178367-29.032722 141.783086-80.933683 193.385765-51.60268 51.204971-120.107972 79.442276-192.88863 79.442276zM235.890863 514.634819h4.076512c-0.596563 146.456161 118.119429 266.066997 264.57559 266.663559h0.994272c146.058452 0 265.072726-118.517138 265.669288-264.575589 0.69599-146.555588-118.020002-266.166424-264.57559-266.66356h-0.994271c-146.058452 0-265.072726 118.517138-265.669289 264.57559h-4.076512z" fill="#1296db" p-id="12509"></path></svg>