<?xml version="1.0" standalone="no"?><!DOCTYPE svg PUBLIC "-//W3C//DTD SVG 1.1//EN" "http://www.w3.org/Graphics/SVG/1.1/DTD/svg11.dtd"><svg t="1637203887375" class="icon" viewBox="0 0 1024 1024" version="1.1" xmlns="http://www.w3.org/2000/svg" p-id="10304" xmlns:xlink="http://www.w3.org/1999/xlink" width="880" height="880"><defs><style type="text/css"></style></defs><path d="M890.577455 512c0 9.797818-3.048727 18.920727-8.261819 26.414545-10.635636 15.313455-8.075636 36.165818 7.68 45.824l6.749091 4.119273c13.474909 8.238545 30.72 4.445091 40.075637-8.378182A114.548364 114.548364 0 0 0 959.069091 512c0-61.952-48.267636-112.570182-108.311273-115.758545a398.824727 398.824727 0 0 0-28.485818-69.841455c40.308364-45.544727 39.330909-116.154182-3.653818-159.976727a112.011636 112.011636 0 0 0-80.244364-33.745455A113.152 113.152 0 0 0 661.643636 162.676364a384.186182 384.186182 0 0 0-68.538181-29.021091C590.010182 72.471273 540.346182 23.272727 479.557818 23.272727s-110.452364 49.198545-113.594182 110.382546c-23.901091 7.447273-46.801455 17.245091-68.514909 29.021091a113.221818 113.221818 0 0 0-76.753454-29.998546 111.941818 111.941818 0 0 0-80.221091 33.745455c-43.054545 43.822545-43.985455 114.432-3.677091 159.976727a398.824727 398.824727 0 0 0-28.485818 69.841455C48.267636 399.429818 0 450.048 0 512c0 61.952 48.290909 112.570182 108.311273 115.758545a397.032727 397.032727 0 0 0 28.485818 69.841455c-40.308364 45.544727-39.354182 116.154182 3.677091 159.976727a111.941818 111.941818 0 0 0 80.221091 33.745455 113.221818 113.221818 0 0 0 76.753454-29.998546c21.713455 11.776 44.613818 21.573818 68.514909 29.021091 3.141818 61.184 52.805818 110.382545 113.570909 110.382546 11.589818 0 22.690909-1.861818 33.140364-5.236364a34.606545 34.606545 0 0 0 20.014546-48.779636c-7.517091-14.498909-24.064-23.156364-39.354182-18.036364a43.496727 43.496727 0 0 1-13.777455 2.234182c-24.064 0-43.892364-19.432727-45.172363-44.218182l-2.513455-48.826182-45.870545-14.289454a314.530909 314.530909 0 0 1-56.366546-23.877818l-42.402909-23.016728-35.677091 32.791273a45.568 45.568 0 0 1-30.859636 12.032c-12.101818 0-23.389091-4.724364-31.790546-13.288727-17.012364-17.361455-17.570909-45.405091-1.233454-63.860364l32.186182-36.352-22.597819-43.217454a328.890182 328.890182 0 0 1-23.435636-57.437091l-14.010182-46.754909-47.895273-2.56A45.963636 45.963636 0 0 1 68.514909 512c0-24.529455 19.060364-44.730182 43.403636-46.033455l47.895273-2.56 14.010182-46.754909c5.911273-19.642182 13.777455-38.958545 23.435636-57.437091l22.574546-43.217454-32.162909-36.375273c-16.337455-18.432-15.825455-46.475636 1.233454-63.837091a44.171636 44.171636 0 0 1 31.790546-13.288727c11.450182 0 22.411636 4.282182 30.859636 12.032l35.677091 32.791273 42.402909-23.016728a315.252364 315.252364 0 0 1 56.366546-23.877818l45.847272-14.289454 2.536728-48.826182c1.28-24.785455 21.108364-44.218182 45.14909-44.218182 24.087273 0 43.915636 19.432727 45.149091 44.218182l2.536728 48.826182 45.847272 14.289454c19.316364 6.004364 38.260364 14.033455 56.389819 23.877818l42.426181 23.016728 35.677091-32.791273a45.451636 45.451636 0 0 1 30.836364-12.032c12.101818 0 23.389091 4.724364 31.790545 13.288727 17.058909 17.361455 17.570909 45.405091 1.233455 63.837091l-32.162909 36.375273 22.574545 43.217454c9.658182 18.478545 17.547636 37.794909 23.435637 57.437091l14.033454 46.754909 47.895273 2.56A45.963636 45.963636 0 0 1 890.577455 512m59.880727 332.357818c-5.934545 8.797091-13.568 13.218909-22.807273 13.218909-9.192727 0-16.779636-4.491636-22.853818-13.428363-6.050909-8.936727-9.076364-22.737455-9.076364-41.425455 0-18.432 3.072-32.139636 9.146182-41.146182 6.120727-9.029818 13.870545-13.521455 23.226182-13.521454 8.843636 0 16.267636 4.445091 22.295273 13.312 6.004364 8.890182 9.006545 22.411636 9.006545 40.564363 0 19.479273-2.978909 33.605818-8.936727 42.426182m52.875636-115.037091c-17.221818-24.343273-42.589091-36.514909-76.194909-36.514909-29.370182 0-52.712727 10.356364-69.957818 31.069091-17.291636 20.736-25.925818 47.057455-25.925818 79.034182 0 34.350545 10.216727 62.091636 30.650182 83.269818 16.64 17.105455 38.446545 25.646545 65.396363 25.646546 30.231273 0 53.922909-10.286545 71.028364-30.88291 17.105455-20.573091 25.669818-46.987636 25.669818-79.220363 0-28.672-6.888727-52.805818-20.666182-72.401455m-241.198545-111.499636c-18.641455 0-33.745455 15.383273-33.745455 34.373818v125.672727l-75.194182-137.984a41.960727 41.960727 0 0 0-36.770909-22.062545c-23.226182 0-42.053818 19.2-42.053818 42.868364v212.107636c0 18.944 15.057455 34.304 33.629091 34.304 18.594909 0 33.652364-15.36 33.652364-34.304v-124.532364l74.612363 136.587637c7.493818 13.730909 21.690182 22.248727 37.12 22.248727 23.458909 0 42.472727-19.386182 42.472728-43.310546v-211.595636c0-18.990545-15.080727-34.373818-33.745455-34.373818M499.083636 358.749091c59.415273 7.749818 109.568 53.224727 124.253091 112.407273a152.808727 152.808727 0 0 1 1.629091 67.584c-3.072 15.36 2.955636 31.115636 16.384 38.842181a34.048 34.048 0 0 0 50.269091-22.434909 225.233455 225.233455 0 0 0-0.023273-93.44c-18.385455-88.064-90.018909-157.416727-177.291636-171.287272-146.618182-23.319273-271.778909 104.192-248.971636 253.602909 13.730909 89.925818 83.060364 163.490909 170.589091 181.364363 20.247273 4.119273 40.029091 5.282909 59.159272 3.863273 24.971636-1.815273 39.936-29.137455 27.997091-51.572364-6.609455-12.381091-19.828364-19.013818-33.629091-18.01309-23.435636 1.652364-48.430545-2.443636-74.426182-15.52291-43.636364-21.969455-75.659636-64.605091-82.408727-113.733818-13.661091-99.723636 68.794182-184.436364 166.469818-171.659636" p-id="10305" fill="#1296db"></path></svg>