<?xml version="1.0" standalone="no"?><!DOCTYPE svg PUBLIC "-//W3C//DTD SVG 1.1//EN" "http://www.w3.org/Graphics/SVG/1.1/DTD/svg11.dtd"><svg t="1637207208368" class="icon" viewBox="0 0 1027 1024" version="1.1" xmlns="http://www.w3.org/2000/svg" p-id="36601" xmlns:xlink="http://www.w3.org/1999/xlink" width="882.578125" height="880"><defs><style type="text/css"></style></defs><path d="M1025.1807 573.892124A75.763499 75.763499 0 0 0 937.643144 511.950344c-7.166817 0-19.964706-13.309804-23.548115-23.036199q-34.298341-86.513725-65.525188-174.563197a107.502262 107.502262 0 0 0-75.763499-71.156259c-51.191553-13.309804-102.383107-21.500452-150.503167-31.738763A735.110707 735.110707 0 0 0 508.146011 204.801024a252.886274 252.886274 0 0 0-69.108597-130.026546A248.279034 248.279034 0 0 0 257.307399 0.03481a261.076922 261.076922 0 0 0-181.730015 74.739668A260.053091 260.053091 0 0 0 1.349632 255.992577a255.957767 255.957767 0 0 0 74.227752 181.218099 240.600301 240.600301 0 0 0 43.512821 34.810257l-7.678733 20.476621c-3.583409 8.702564-15.357466 22.012368-21.500453 21.500452C37.183719 507.343104 16.707098 539.081867 1.349632 580.03511a58.870286 58.870286 0 0 0 0 25.083861l54.774962 14.333635c0 74.739668 0 148.96742-3.071493 223.195173v119.788235a91.632881 91.632881 0 0 0 18.428959 54.263047 486.319757 486.319757 0 0 0 167.908295 0c11.774057-4.60724 17.405128-62.453695 26.619608-97.263952h498.093815c12.285973 32.762594-11.262142 73.203921 26.619607 97.263952a479.15294 479.15294 0 0 0 163.812971-3.071494 80.882654 80.882654 0 0 0 17.405128-47.096229v-283.601205a516.010858 516.010858 0 0 0-7.166817-61.94178l60.406033-15.869382a66.037104 66.037104 0 0 0 0-31.226847zM52.541185 255.992577a208.349622 208.349622 0 0 1 59.382202-144.872096A209.373453 209.373453 0 0 1 257.307399 51.226364a196.575565 196.575565 0 0 1 145.384012 59.894117A199.647058 199.647058 0 0 1 455.930626 204.801024c0 5.631071 0 11.262142 3.071493 17.405128A208.861538 208.861538 0 0 1 462.073613 255.992577a204.766214 204.766214 0 0 1-3.583409 38.393665 209.885369 209.885369 0 0 1-55.798793 106.478431A209.373453 209.373453 0 0 1 257.307399 460.758791a215.51644 215.51644 0 0 1-51.191553-7.166818 204.766214 204.766214 0 0 1-34.298341-11.774057 182.24193 182.24193 0 0 1-30.714932-17.405128 197.599396 197.599396 0 0 1-26.619608-22.524284A204.766214 204.766214 0 0 1 52.541185 255.992577z m222.683258 511.915534a249.814781 249.814781 0 0 1-54.774962 4.60724c-26.619608-2.559578-51.191553-3.583409-79.858824-8.702564-33.786425-7.166817-43.51282-31.738763-33.274509-76.275415 7.166817-30.203017 31.226848-31.738763 51.191553-24.571945a1195.834687 1195.834687 0 0 1 127.978883 51.191553c10.238311 4.60724 22.012368 24.06003 19.452791 31.226848a51.191553 51.191553 0 0 1-30.714932 22.524283z m-98.287783-238.552639l10.238311-27.643438A264.148416 264.148416 0 0 0 257.307399 511.950344a261.076922 261.076922 0 0 0 181.730015-74.739668 261.588838 261.588838 0 0 0 70.132428-140.776772c67.060935 0 133.609954 3.583409 200.670889 6.142987a84.977979 84.977979 0 0 1 84.977979 68.084766c14.333635 51.191553 33.27451 102.383107 51.191553 158.693815a1617.141172 1617.141172 0 0 1-669.073603 0z m716.681748 231.385822a731.015382 731.015382 0 0 1-80.370739 10.23831 576.416891 576.416891 0 0 1-69.108597-6.142986c-25.595777-5.631071-33.786425-35.322172-11.262142-46.072398a1109.320962 1109.320962 0 0 1 153.57466-58.358371c20.988537-6.654902 35.322172 10.750226 36.346003 33.786425s6.654902 57.846455-31.738763 66.54902z" p-id="36602" fill="#1296db"></path><path d="M359.690506 307.184131V255.992577H257.307399V153.60947H206.115846v153.574661h153.57466z" p-id="36603" fill="#1296db"></path></svg>