<?xml version="1.0" standalone="no"?><!DOCTYPE svg PUBLIC "-//W3C//DTD SVG 1.1//EN" "http://www.w3.org/Graphics/SVG/1.1/DTD/svg11.dtd"><svg t="1637205302408" class="icon" viewBox="0 0 1028 1024" version="1.1" xmlns="http://www.w3.org/2000/svg" p-id="18553" xmlns:xlink="http://www.w3.org/1999/xlink" width="883.4375" height="880"><defs><style type="text/css"></style></defs><path d="M870.4 921.6c4.266667 17.066667 12.8 42.666667 12.8 55.466667l51.2-12.8c-4.266667-17.066667-8.533333-38.4-17.066667-55.466667l-46.933333 12.8zM802.133333 917.333333c4.266667 17.066667 4.266667 42.666667 4.266667 59.733334l51.2-4.266667c0-12.8-4.266667-38.4-4.266667-55.466667h-51.2z" p-id="18554" fill="#1296db"></path><path d="M1019.733333 904.533333v-42.666666h-128V853.333333h102.4v-38.4h-102.4v-8.533333h98.133334v-140.8h-247.466667v140.8h98.133333v8.533333h-102.4v38.4h102.4v8.533334h-128v42.666666h29.866667c-8.533333 21.333333-21.333333 42.666667-34.133333 55.466667l46.933333 21.333333c17.066667-17.066667 29.866667-42.666667 34.133333-64l-42.666666-8.533333h226.133333l-38.4 12.8c12.8 21.333333 29.866667 46.933333 38.4 64l51.2-17.066667c-8.533333-17.066667-25.6-42.666667-38.4-59.733333h34.133333z m-132.266666-200.533333H938.666667v12.8l-34.133334-12.8c-4.266667 12.8-8.533333 34.133333-17.066666 46.933333l29.866666 12.8c4.266667-8.533333 12.8-25.6 17.066667-38.4v38.4h-51.2v-59.733333z m-46.933334 59.733333h-51.2v-59.733333h51.2v59.733333z" p-id="18555" fill="#1296db"></path><path d="M836.266667 750.933333c0-12.8-8.533333-29.866667-17.066667-42.666666l-29.866667 8.533333c8.533333 12.8 12.8 34.133333 12.8 46.933333l34.133334-12.8z" p-id="18556" fill="#1296db"></path><path d="M951.466667 384l-29.866667-12.8-42.666667-192c-17.066667-76.8-85.333333-136.533333-166.4-136.533333H311.466667C230.4 42.666667 162.133333 98.133333 145.066667 174.933333l-42.666667 192-29.866667 17.066667C25.6 405.333333 0 448 0 499.2V768c0 72.533333 55.466667 128 128 128h51.2c17.066667 51.2 64 85.333333 119.466667 85.333333s102.4-34.133333 119.466666-85.333333H597.333333c-8.533333-25.6-8.533333-46.933333-8.533333-72.533333 0-153.6 123.733333-277.333333 277.333333-277.333334 59.733333 0 115.2 17.066667 162.133334 51.2v-98.133333c-4.266667-51.2-29.866667-93.866667-76.8-115.2zM264.533333 750.933333c-46.933333 0-85.333333-38.4-85.333333-85.333333s38.4-85.333333 85.333333-85.333333 85.333333 38.4 85.333334 85.333333-34.133333 85.333333-85.333334 85.333333z m516.266667-277.333333c-8.533333 8.533333-21.333333 17.066667-34.133333 17.066667h-469.333334c-12.8 0-25.6-4.266667-34.133333-17.066667-8.533333-8.533333-12.8-21.333333-8.533333-34.133333l38.4-179.2c8.533333-38.4 42.666667-68.266667 85.333333-68.266667h307.2c38.4 0 76.8 25.6 85.333333 68.266667l38.4 179.2c0 12.8 0 25.6-8.533333 34.133333z" p-id="18557" fill="#1296db"></path></svg>